Exo-Light.ufo
<glyph name="ampersand" format="1">
  <advance width="665"/>
  <unicode hex="0026"/>
  <note>
    GF Latin Plus glyph
  </note>
  <outline>
    <contour>
      <point x="244" y="49" type="curve" smooth="yes"/>
      <point x="155" y="49"/>
      <point x="98" y="105"/>
      <point x="98" y="193" type="curve" smooth="yes"/>
      <point x="98" y="244"/>
      <point x="118" y="295"/>
      <point x="178" y="346" type="curve" smooth="yes"/>
      <point x="235" y="394" type="line"/>
      <point x="418" y="147" type="line"/>
      <point x="385" y="114" type="line" smooth="yes"/>
      <point x="331" y="63"/>
      <point x="290" y="49"/>
    </contour>
    <contour>
      <point x="236" y="-6" type="curve" smooth="yes"/>
      <point x="301" y="-6"/>
      <point x="353" y="16"/>
      <point x="419" y="77" type="curve" smooth="yes"/>
      <point x="451" y="106" type="line"/>
      <point x="531" y="0" type="line"/>
      <point x="595" y="0" type="line"/>
      <point x="491" y="140" type="line"/>
      <point x="563" y="209" type="line"/>
      <point x="632" y="299" type="line"/>
      <point x="610" y="324" type="line"/>
      <point x="459" y="180" type="line"/>
      <point x="242" y="476" type="line" smooth="yes"/>
      <point x="205" y="527"/>
      <point x="191" y="560"/>
      <point x="191" y="597" type="curve" smooth="yes"/>
      <point x="191" y="659"/>
      <point x="240" y="682"/>
      <point x="309" y="682" type="curve" smooth="yes"/>
      <point x="463" y="682" type="line"/>
      <point x="463" y="723" type="line"/>
      <point x="422" y="728"/>
      <point x="379" y="733"/>
      <point x="299" y="733" type="curve" smooth="yes"/>
      <point x="210" y="733"/>
      <point x="133" y="700"/>
      <point x="133" y="605" type="curve" smooth="yes"/>
      <point x="133" y="567"/>
      <point x="145" y="521"/>
      <point x="186" y="464" type="curve" smooth="yes"/>
      <point x="206" y="435" type="line"/>
      <point x="138" y="378" type="line" smooth="yes"/>
      <point x="71" y="321"/>
      <point x="42" y="256"/>
      <point x="42" y="188" type="curve" smooth="yes"/>
      <point x="42" y="70"/>
      <point x="125" y="-6"/>
    </contour>
  </outline>
</glyph>
<glyph name="comma" format="1">
  <advance width="189"/>
  <unicode hex="002C"/>
  <note>
    GF Latin Plus glyph
  </note>
  <outline>
    <contour>
      <point x="65" y="18" type="line" smooth="yes"/>
      <point x="65" y="8"/>
      <point x="71" y="3"/>
      <point x="79" y="3" type="curve" smooth="yes"/>
      <point x="86" y="3" type="line"/>
      <point x="86" y="-39" type="line" smooth="yes"/>
      <point x="86" y="-51"/>
      <point x="81" y="-55"/>
      <point x="67" y="-55" type="curve"/>
      <point x="67" y="-72" type="line"/>
      <point x="67" y="-72"/>
      <point x="76" y="-75"/>
      <point x="85" y="-75" type="curve" smooth="yes"/>
      <point x="102" y="-75"/>
      <point x="124" y="-68"/>
      <point x="124" y="-32" type="curve" smooth="yes"/>
      <point x="124" y="86" type="line" smooth="yes"/>
      <point x="124" y="95"/>
      <point x="120" y="101"/>
      <point x="110" y="101" type="curve" smooth="yes"/>
      <point x="79" y="101" type="line" smooth="yes"/>
      <point x="70" y="101"/>
      <point x="65" y="96"/>
      <point x="65" y="86" type="curve" smooth="yes"/>
    </contour>
  </outline>
</glyph>
<glyph name="two" format="1">
  <advance width="595"/>
  <unicode hex="0032"/>
  <note>
    GF Latin Plus glyph
  </note>
  <outline>
    <contour>
      <point x="86" y="686" type="line"/>
      <point x="283" y="686" type="line" smooth="yes"/>
      <point x="424" y="686"/>
      <point x="458" y="627"/>
      <point x="458" y="550" type="curve" smooth="yes"/>
      <point x="458" y="460"/>
      <point x="427" y="399"/>
      <point x="337" y="314" type="curve" smooth="yes"/>
      <point x="57" y="48" type="line"/>
      <point x="57" y="0" type="line"/>
      <point x="544" y="0" type="line"/>
      <point x="544" y="54" type="line"/>
      <point x="137" y="54" type="line"/>
      <point x="380" y="286" type="line" smooth="yes"/>
      <point x="477" y="378"/>
      <point x="516" y="451"/>
      <point x="516" y="555" type="curve" smooth="yes"/>
      <point x="516" y="663"/>
      <point x="463" y="740"/>
      <point x="296" y="740" type="curve" smooth="yes"/>
      <point x="221" y="740"/>
      <point x="145" y="734"/>
      <point x="86" y="729" type="curve"/>
    </contour>
  </outline>
</glyph>
<glyph name="three" format="1">
  <advance width="587"/>
  <unicode hex="0033"/>
  <note>
    GF Latin Plus glyph
  </note>
  <outline>
    <contour>
      <point x="73" y="686" type="line"/>
      <point x="283" y="686" type="line" smooth="yes"/>
      <point x="386" y="686"/>
      <point x="439" y="640"/>
      <point x="439" y="561" type="curve" smooth="yes"/>
      <point x="439" y="504" type="line" smooth="yes"/>
      <point x="439" y="430"/>
      <point x="386" y="401"/>
      <point x="310" y="398" type="curve" smooth="yes"/>
      <point x="121" y="391" type="line"/>
      <point x="121" y="350" type="line"/>
      <point x="312" y="343" type="line" smooth="yes"/>
      <point x="376" y="341"/>
      <point x="449" y="314"/>
      <point x="449" y="227" type="curve" smooth="yes"/>
      <point x="449" y="173" type="line" smooth="yes"/>
      <point x="449" y="71"/>
      <point x="377" y="48"/>
      <point x="290" y="48" type="curve" smooth="yes"/>
      <point x="45" y="48" type="line"/>
      <point x="45" y="4" type="line"/>
      <point x="109" y="-2"/>
      <point x="202" y="-6"/>
      <point x="307" y="-6" type="curve" smooth="yes"/>
      <point x="435" y="-6"/>
      <point x="509" y="54"/>
      <point x="509" y="165" type="curve" smooth="yes"/>
      <point x="509" y="221" type="line" smooth="yes"/>
      <point x="509" y="321"/>
      <point x="427" y="363"/>
      <point x="386" y="371" type="curve"/>
      <point x="422" y="377"/>
      <point x="496" y="408"/>
      <point x="496" y="505" type="curve" smooth="yes"/>
      <point x="496" y="570" type="line" smooth="yes"/>
      <point x="496" y="670"/>
      <point x="436" y="740"/>
      <point x="304" y="740" type="curve" smooth="yes"/>
      <point x="205" y="741"/>
      <point x="128" y="736"/>
      <point x="73" y="730" type="curve"/>
    </contour>
  </outline>
</glyph>
<glyph name="greater" format="1">
  <advance width="609"/>
  <unicode hex="003E"/>
  <note>
    GF Latin Plus glyph
  </note>
  <outline>
    <contour>
      <point x="98" y="186" type="line"/>
      <point x="513" y="322" type="line"/>
      <point x="513" y="375" type="line"/>
      <point x="98" y="510" type="line"/>
      <point x="98" y="460" type="line"/>
      <point x="459" y="348" type="line"/>
      <point x="98" y="236" type="line"/>
    </contour>
  </outline>
</glyph>
<glyph name="question" format="1">
  <advance width="531"/>
  <unicode hex="003F"/>
  <note>
    GF Latin Plus glyph
  </note>
  <outline>
    <contour>
      <point x="46" y="647" type="line"/>
      <point x="117" y="674"/>
      <point x="175" y="687"/>
      <point x="245" y="687" type="curve" smooth="yes"/>
      <point x="346" y="687"/>
      <point x="389" y="646"/>
      <point x="389" y="536" type="curve" smooth="yes"/>
      <point x="389" y="468" type="line" smooth="yes"/>
      <point x="389" y="372"/>
      <point x="341" y="343"/>
      <point x="221" y="343" type="curve" smooth="yes"/>
      <point x="176" y="343" type="line"/>
      <point x="176" y="197" type="line"/>
      <point x="223" y="197" type="line"/>
      <point x="223" y="295" type="line"/>
      <point x="382" y="295"/>
      <point x="447" y="351"/>
      <point x="447" y="467" type="curve" smooth="yes"/>
      <point x="447" y="542" type="line" smooth="yes"/>
      <point x="447" y="665"/>
      <point x="400" y="741"/>
      <point x="258" y="739" type="curve" smooth="yes"/>
      <point x="180" y="738"/>
      <point x="110" y="724"/>
      <point x="46" y="687" type="curve"/>
    </contour>
    <component base="period" xOffset="104"/>
  </outline>
</glyph>
<glyph name="at" format="1">
  <advance width="870"/>
  <unicode hex="0040"/>
  <note>
    GF Latin Plus glyph
  </note>
  <outline>
    <contour>
      <point x="283" y="152" type="curve" smooth="yes"/>
      <point x="283" y="191" type="line" smooth="yes"/>
      <point x="283" y="259"/>
      <point x="341" y="267"/>
      <point x="379" y="269" type="curve" smooth="yes"/>
      <point x="567" y="278" type="line"/>
      <point x="567" y="124" type="line"/>
      <point x="525" y="100"/>
      <point x="432" y="67"/>
      <point x="379" y="67" type="curve" smooth="yes"/>
      <point x="319" y="67"/>
      <point x="283" y="100"/>
    </contour>
    <contour>
      <point x="78" y="32" type="line" smooth="yes"/>
      <point x="78" y="-97"/>
      <point x="154" y="-158"/>
      <point x="260" y="-158" type="curve" smooth="yes"/>
      <point x="581" y="-158" type="line" smooth="yes"/>
      <point x="721" y="-158"/>
      <point x="770" y="-80"/>
      <point x="770" y="36" type="curve" smooth="yes"/>
      <point x="770" y="528" type="line" smooth="yes"/>
      <point x="770" y="669"/>
      <point x="687" y="731"/>
      <point x="579" y="731" type="curve" smooth="yes"/>
      <point x="481" y="731" type="line" smooth="yes"/>
      <point x="355" y="731"/>
      <point x="235" y="728"/>
      <point x="187" y="718" type="curve"/>
      <point x="187" y="683" type="line"/>
      <point x="579" y="683" type="line" smooth="yes"/>
      <point x="674" y="683"/>
      <point x="722" y="619"/>
      <point x="722" y="528" type="curve" smooth="yes"/>
      <point x="722" y="36" type="line" smooth="yes"/>
      <point x="722" y="-59"/>
      <point x="678" y="-109"/>
      <point x="579" y="-109" type="curve" smooth="yes"/>
      <point x="260" y="-109" type="line" smooth="yes"/>
      <point x="197" y="-109"/>
      <point x="126" y="-76"/>
      <point x="126" y="36" type="curve" smooth="yes"/>
      <point x="126" y="362" type="line" smooth="yes"/>
      <point x="126" y="460"/>
      <point x="181" y="492"/>
      <point x="260" y="492" type="curve" smooth="yes"/>
      <point x="453" y="492" type="line" smooth="yes"/>
      <point x="523" y="492"/>
      <point x="567" y="462"/>
      <point x="567" y="390" type="curve" smooth="yes"/>
      <point x="567" y="310" type="line"/>
      <point x="368" y="310" type="line" smooth="yes"/>
      <point x="282" y="310"/>
      <point x="233" y="265"/>
      <point x="233" y="191" type="curve" smooth="yes"/>
      <point x="233" y="142" type="line" smooth="yes"/>
      <point x="233" y="74"/>
      <point x="283" y="19"/>
      <point x="361" y="19" type="curve" smooth="yes"/>
      <point x="452" y="19"/>
      <point x="567" y="90"/>
      <point x="569" y="90" type="curve"/>
      <point x="579" y="28" type="line"/>
      <point x="615" y="28" type="line"/>
      <point x="615" y="394" type="line" smooth="yes"/>
      <point x="615" y="514"/>
      <point x="530" y="540"/>
      <point x="454" y="540" type="curve" smooth="yes"/>
      <point x="260" y="540" type="line" smooth="yes"/>
      <point x="92" y="540"/>
      <point x="78" y="418"/>
      <point x="78" y="364" type="curve" smooth="yes"/>
    </contour>
  </outline>
</glyph>
<glyph name="A" format="1">
  <advance width="671"/>
  <unicode hex="0041"/>
  <note>
    GF Latin Plus glyph
  </note>
  <outline>
    <contour>
      <point x="195" y="280" type="line"/>
      <point x="335" y="682" type="line"/>
      <point x="473" y="280" type="line"/>
    </contour>
    <contour>
      <point x="39" y="0" type="line"/>
      <point x="100" y="0" type="line"/>
      <point x="180" y="228" type="line"/>
      <point x="490" y="228" type="line"/>
      <point x="571" y="0" type="line"/>
      <point x="632" y="0" type="line"/>
      <point x="373" y="734" type="line"/>
      <point x="298" y="734" type="line"/>
    </contour>
    <contour>
      <point x="335" y="810" type="move" name="top"/>
    </contour>
    <contour>
      <point x="622" y="0" type="move" name="ogonek"/>
    </contour>
    <contour>
      <point x="335" y="-150" type="move" name="bottom"/>
    </contour>
  </outline>
</glyph>
<glyph name="E" format="1">
  <advance width="584"/>
  <unicode hex="0045"/>
  <note>
    GF Latin Plus glyph
  </note>
  <outline>
    <contour>
      <point x="81" y="133" type="line" smooth="yes"/>
      <point x="81" y="9"/>
      <point x="164" y="-4"/>
      <point x="230" y="-4" type="curve" smooth="yes"/>
      <point x="250" y="-4"/>
      <point x="505" y="2"/>
      <point x="522" y="5" type="curve"/>
      <point x="522" y="50" type="line"/>
      <point x="238" y="50" type="line" smooth="yes"/>
      <point x="189" y="50"/>
      <point x="139" y="62"/>
      <point x="139" y="144" type="curve" smooth="yes"/>
      <point x="139" y="338" type="line"/>
      <point x="480" y="343" type="line"/>
      <point x="480" y="386" type="line"/>
      <point x="139" y="391" type="line"/>
      <point x="139" y="586" type="line" smooth="yes"/>
      <point x="139" y="652"/>
      <point x="175" y="681"/>
      <point x="231" y="681" type="curve" smooth="yes"/>
      <point x="522" y="681" type="line"/>
      <point x="522" y="726" type="line"/>
      <point x="509" y="728"/>
      <point x="253" y="734"/>
      <point x="219" y="734" type="curve" smooth="yes"/>
      <point x="151" y="735"/>
      <point x="81" y="701"/>
      <point x="81" y="593" type="curve" smooth="yes"/>
    </contour>
    <contour>
      <point x="311" y="810" type="move" name="top"/>
    </contour>
    <contour>
      <point x="512" y="5" type="move" name="ogonek"/>
    </contour>
    <contour>
      <point x="316" y="-150" type="move" name="bottom"/>
    </contour>
  </outline>
</glyph>
<glyph name="F" format="1">
  <advance width="563"/>
  <unicode hex="0046"/>
  <note>
    GF Latin Plus glyph
  </note>
  <outline>
    <contour>
      <point x="81" y="0" type="line"/>
      <point x="139" y="0" type="line"/>
      <point x="139" y="323" type="line"/>
      <point x="480" y="328" type="line"/>
      <point x="480" y="371" type="line"/>
      <point x="139" y="376" type="line"/>
      <point x="139" y="586" type="line" smooth="yes"/>
      <point x="139" y="650"/>
      <point x="174" y="681"/>
      <point x="230" y="681" type="curve" smooth="yes"/>
      <point x="522" y="681" type="line"/>
      <point x="522" y="726" type="line"/>
      <point x="499" y="729"/>
      <point x="231" y="734"/>
      <point x="219" y="734" type="curve" smooth="yes"/>
      <point x="151" y="735"/>
      <point x="81" y="701"/>
      <point x="81" y="593" type="curve" smooth="yes"/>
    </contour>
    <contour>
      <point x="311" y="810" type="move" name="top"/>
    </contour>
  </outline>
</glyph>
<glyph name="H" format="1">
  <advance width="675"/>
  <unicode hex="0048"/>
  <note>
    GF Latin Plus glyph
  </note>
  <outline>
    <contour>
      <point x="81" y="0" type="line"/>
      <point x="139" y="0" type="line"/>
      <point x="139" y="331" type="line"/>
      <point x="535" y="331" type="line"/>
      <point x="535" y="0" type="line"/>
      <point x="593" y="0" type="line"/>
      <point x="593" y="734" type="line"/>
      <point x="535" y="734" type="line"/>
      <point x="535" y="383" type="line"/>
      <point x="139" y="383" type="line"/>
      <point x="139" y="734" type="line"/>
      <point x="81" y="734" type="line"/>
    </contour>
    <contour>
      <point x="337" y="810" type="move" name="top"/>
    </contour>
    <contour>
      <point x="337" y="-150" type="move" name="bottom"/>
    </contour>
  </outline>
</glyph>
<glyph name="I" format="1">
  <advance width="221"/>
  <unicode hex="0049"/>
  <note>
    GF Latin Plus glyph
  </note>
  <outline>
    <contour>
      <point x="81" y="0" type="line"/>
      <point x="139" y="0" type="line"/>
      <point x="139" y="734" type="line"/>
      <point x="81" y="734" type="line"/>
    </contour>
    <contour>
      <point x="110" y="810" type="move" name="top"/>
    </contour>
    <contour>
      <point x="129" y="0" type="move" name="ogonek"/>
    </contour>
    <contour>
      <point x="110" y="-150" type="move" name="bottom"/>
    </contour>
  </outline>
</glyph>
<glyph name="M" format="1">
  <advance width="821"/>
  <unicode hex="004D"/>
  <note>
    GF Latin Plus glyph
  </note>
  <outline>
    <contour>
      <point x="61" y="0" type="line"/>
      <point x="117" y="0" type="line"/>
      <point x="192" y="675" type="line"/>
      <point x="180" y="673" type="line"/>
      <point x="383" y="0" type="line"/>
      <point x="437" y="0" type="line"/>
      <point x="636" y="674" type="line"/>
      <point x="625" y="676" type="line"/>
      <point x="703" y="0" type="line"/>
      <point x="759" y="0" type="line"/>
      <point x="674" y="734" type="line"/>
      <point x="610" y="734" type="line"/>
      <point x="410" y="77" type="line"/>
      <point x="207" y="734" type="line"/>
      <point x="144" y="734" type="line"/>
    </contour>
    <contour>
      <point x="408" y="810" type="move" name="top"/>
    </contour>
    <contour>
      <point x="408" y="-150" type="move" name="bottom"/>
    </contour>
  </outline>
</glyph>
<glyph name="N" format="1">
  <advance width="676"/>
  <unicode hex="004E"/>
  <note>
    GF Latin Plus glyph
  </note>
  <outline>
    <contour>
      <point x="97" y="0" type="line"/>
      <point x="155" y="0" type="line"/>
      <point x="155" y="633" type="line"/>
      <point x="562" y="0" type="line"/>
      <point x="610" y="0" type="line"/>
      <point x="610" y="734" type="line"/>
      <point x="552" y="734" type="line"/>
      <point x="552" y="101" type="line"/>
      <point x="146" y="734" type="line"/>
      <point x="97" y="734" type="line"/>
    </contour>
    <contour>
      <point x="338" y="810" type="move" name="top"/>
    </contour>
    <contour>
      <point x="338" y="-150" type="move" name="bottom"/>
    </contour>
  </outline>
</glyph>
<glyph name="P" format="1">
  <advance width="599"/>
  <unicode hex="0050"/>
  <note>
    GF Latin Plus glyph
  </note>
  <outline>
    <contour>
      <point x="139" y="321" type="line"/>
      <point x="139" y="682" type="line"/>
      <point x="363" y="682" type="line" smooth="yes"/>
      <point x="432" y="682"/>
      <point x="495" y="648"/>
      <point x="495" y="505" type="curve" smooth="yes"/>
      <point x="495" y="360"/>
      <point x="431" y="321"/>
      <point x="355" y="321" type="curve" smooth="yes"/>
    </contour>
    <contour>
      <point x="81" y="0" type="line"/>
      <point x="139" y="0" type="line"/>
      <point x="139" y="278" type="line"/>
      <point x="181" y="275"/>
      <point x="321" y="269"/>
      <point x="362" y="269" type="curve" smooth="yes"/>
      <point x="443" y="269"/>
      <point x="553" y="306"/>
      <point x="553" y="505" type="curve" smooth="yes"/>
      <point x="553" y="701"/>
      <point x="451" y="734"/>
      <point x="367" y="734" type="curve" smooth="yes"/>
      <point x="81" y="734" type="line"/>
    </contour>
    <contour>
      <point x="285" y="810" type="move" name="top"/>
    </contour>
  </outline>
</glyph>
<glyph name="Q" format="1">
  <advance width="682"/>
  <unicode hex="0051"/>
  <note>
    GF Latin Plus glyph
  </note>
  <outline>
    <contour>
      <point x="354" y="-34" type="line"/>
      <point x="367" y="-118"/>
      <point x="437" y="-161"/>
      <point x="504" y="-161" type="curve" smooth="yes"/>
      <point x="521" y="-161"/>
      <point x="538" y="-159"/>
      <point x="554" y="-154" type="curve"/>
      <point x="554" y="-106" type="line"/>
      <point x="539" y="-111"/>
      <point x="522" y="-114"/>
      <point x="504" y="-114" type="curve" smooth="yes"/>
      <point x="460" y="-114"/>
      <point x="413" y="-90"/>
      <point x="394" y="-34" type="curve"/>
    </contour>
    <component base="O"/>
  </outline>
</glyph>
<glyph name="S" format="1">
  <advance width="575"/>
  <unicode hex="0053"/>
  <note>
    GF Latin Plus glyph
  </note>
  <outline>
    <contour>
      <point x="65" y="511" type="line" smooth="yes"/>
      <point x="65" y="384"/>
      <point x="135" y="341"/>
      <point x="250" y="341" type="curve" smooth="yes"/>
      <point x="335" y="341" type="line" smooth="yes"/>
      <point x="420" y="341"/>
      <point x="455" y="299"/>
      <point x="455" y="225" type="curve" smooth="yes"/>
      <point x="455" y="169" type="line" smooth="yes"/>
      <point x="455" y="67"/>
      <point x="378" y="46"/>
      <point x="284" y="46" type="curve" smooth="yes"/>
      <point x="202" y="46"/>
      <point x="111" y="49"/>
      <point x="66" y="54" type="curve"/>
      <point x="66" y="10" type="line"/>
      <point x="113" y="1"/>
      <point x="232" y="-6"/>
      <point x="286" y="-6" type="curve" smooth="yes"/>
      <point x="407" y="-6"/>
      <point x="511" y="29"/>
      <point x="511" y="170" type="curve" smooth="yes"/>
      <point x="511" y="231" type="line" smooth="yes"/>
      <point x="511" y="327"/>
      <point x="458" y="397"/>
      <point x="340" y="397" type="curve" smooth="yes"/>
      <point x="251" y="397" type="line" smooth="yes"/>
      <point x="170" y="397"/>
      <point x="121" y="423"/>
      <point x="121" y="513" type="curve" smooth="yes"/>
      <point x="121" y="552" type="line" smooth="yes"/>
      <point x="121" y="660"/>
      <point x="178" y="688"/>
      <point x="275" y="688" type="curve" smooth="yes"/>
      <point x="341" y="688"/>
      <point x="420" y="682"/>
      <point x="478" y="678" type="curve"/>
      <point x="478" y="722" type="line"/>
      <point x="431" y="730"/>
      <point x="328" y="740"/>
      <point x="270" y="740" type="curve" smooth="yes"/>
      <point x="140" y="740"/>
      <point x="65" y="691"/>
      <point x="65" y="554" type="curve" smooth="yes"/>
    </contour>
    <contour>
      <point x="281" y="810" type="move" name="top"/>
    </contour>
    <contour>
      <point x="281" y="-150" type="move" name="bottom"/>
    </contour>
  </outline>
</glyph>
<glyph name="bracketleft" format="1">
  <advance width="330"/>
  <unicode hex="005B"/>
  <note>
    GF Latin Plus glyph
  </note>
  <outline>
    <contour>
      <point x="102" y="-28" type="line" smooth="yes"/>
      <point x="102" y="-96"/>
      <point x="119" y="-210"/>
      <point x="250" y="-210" type="curve" smooth="yes"/>
      <point x="308" y="-210" type="line"/>
      <point x="308" y="-162" type="line"/>
      <point x="262" y="-162" type="line" smooth="yes"/>
      <point x="188" y="-162"/>
      <point x="160" y="-103"/>
      <point x="160" y="-26" type="curve" smooth="yes"/>
      <point x="160" y="658" type="line" smooth="yes"/>
      <point x="160" y="755"/>
      <point x="201" y="794"/>
      <point x="262" y="794" type="curve" smooth="yes"/>
      <point x="308" y="794" type="line"/>
      <point x="308" y="842" type="line"/>
      <point x="250" y="842" type="line" smooth="yes"/>
      <point x="125" y="842"/>
      <point x="102" y="738"/>
      <point x="102" y="664" type="curve" smooth="yes"/>
    </contour>
  </outline>
</glyph>
<glyph name="a" format="1">
  <advance width="543"/>
  <unicode hex="0061"/>
  <note>
    GF Latin Plus glyph
  </note>
  <outline>
    <contour>
      <point x="106" y="137" type="curve" smooth="yes"/>
      <point x="106" y="162" type="line" smooth="yes"/>
      <point x="106" y="220"/>
      <point x="138" y="263"/>
      <point x="221" y="266" type="curve" smooth="yes"/>
      <point x="407" y="273" type="line"/>
      <point x="407" y="92" type="line"/>
      <point x="405" y="91"/>
      <point x="271" y="38"/>
      <point x="203" y="40" type="curve" smooth="yes"/>
      <point x="158" y="40"/>
      <point x="106" y="64"/>
    </contour>
    <contour>
      <point x="48" y="127" type="line" smooth="yes"/>
      <point x="48" y="42"/>
      <point x="105" y="-6"/>
      <point x="183" y="-6" type="curve" smooth="yes"/>
      <point x="278" y="-6"/>
      <point x="402" y="57"/>
      <point x="409" y="62" type="curve"/>
      <point x="421" y="0" type="line"/>
      <point x="465" y="0" type="line"/>
      <point x="465" y="381" type="line" smooth="yes"/>
      <point x="465" y="491"/>
      <point x="408" y="543"/>
      <point x="278" y="542" type="curve" smooth="yes"/>
      <point x="199" y="541"/>
      <point x="139" y="535"/>
      <point x="95" y="529" type="curve"/>
      <point x="95" y="494" type="line"/>
      <point x="262" y="494" type="line" smooth="yes"/>
      <point x="378" y="494"/>
      <point x="407" y="449"/>
      <point x="407" y="378" type="curve" smooth="yes"/>
      <point x="407" y="304" type="line"/>
      <point x="212" y="304" type="line" smooth="yes"/>
      <point x="104" y="304"/>
      <point x="48" y="247"/>
      <point x="48" y="163" type="curve" smooth="yes"/>
    </contour>
    <contour>
      <point x="270" y="650" type="move" name="top"/>
    </contour>
    <contour>
      <point x="455" y="0" type="move" name="ogonek"/>
    </contour>
    <contour>
      <point x="270" y="-150" type="move" name="bottom"/>
    </contour>
  </outline>
</glyph>
<glyph name="b" format="1">
  <advance width="576"/>
  <unicode hex="0062"/>
  <note>
    GF Latin Plus glyph
  </note>
  <outline>
    <contour>
      <point x="140" y="92" type="curve"/>
      <point x="140" y="441" type="line"/>
      <point x="196" y="471"/>
      <point x="242" y="491"/>
      <point x="309" y="491" type="curve" smooth="yes"/>
      <point x="395" y="491"/>
      <point x="456" y="452"/>
      <point x="456" y="265" type="curve" smooth="yes"/>
      <point x="456" y="120"/>
      <point x="407" y="43"/>
      <point x="309" y="43" type="curve" smooth="yes"/>
      <point x="239" y="43"/>
      <point x="185" y="68"/>
    </contour>
    <contour>
      <point x="82" y="0" type="line"/>
      <point x="127" y="0" type="line"/>
      <point x="140" y="55" type="line"/>
      <point x="180" y="28"/>
      <point x="248" y="-6"/>
      <point x="324" y="-6" type="curve" smooth="yes"/>
      <point x="461" y="-6"/>
      <point x="514" y="101"/>
      <point x="514" y="263" type="curve" smooth="yes"/>
      <point x="514" y="468"/>
      <point x="448" y="539"/>
      <point x="322" y="539" type="curve" smooth="yes"/>
      <point x="267" y="539"/>
      <point x="194" y="513"/>
      <point x="140" y="481" type="curve"/>
      <point x="140" y="763" type="line"/>
      <point x="82" y="763" type="line"/>
    </contour>
  </outline>
</glyph>
<glyph name="f" format="1">
  <advance width="360"/>
  <unicode hex="0066"/>
  <note>
    GF Latin Plus glyph
  </note>
  <outline>
    <contour>
      <point x="25" y="484" type="line"/>
      <point x="109" y="484" type="line"/>
      <point x="109" y="0" type="line"/>
      <point x="167" y="0" type="line"/>
      <point x="167" y="484" type="line"/>
      <point x="341" y="484" type="line"/>
      <point x="341" y="533" type="line"/>
      <point x="167" y="533" type="line"/>
      <point x="167" y="604" type="line" smooth="yes"/>
      <point x="167" y="680"/>
      <point x="182" y="720"/>
      <point x="263" y="720" type="curve" smooth="yes"/>
      <point x="354" y="720" type="line"/>
      <point x="354" y="761" type="line"/>
      <point x="328" y="765"/>
      <point x="300" y="769"/>
      <point x="254" y="769" type="curve" smooth="yes"/>
      <point x="139" y="769"/>
      <point x="109" y="708"/>
      <point x="109" y="602" type="curve" smooth="yes"/>
      <point x="109" y="533" type="line"/>
      <point x="25" y="522" type="line"/>
    </contour>
  </outline>
</glyph>
<glyph name="g" format="1">
  <advance width="574"/>
  <unicode hex="0067"/>
  <note>
    GF Latin Plus glyph
  </note>
  <outline>
    <contour>
      <point x="119" y="361" type="curve" smooth="yes"/>
      <point x="119" y="454"/>
      <point x="171" y="488"/>
      <point x="255" y="488" type="curve" smooth="yes"/>
      <point x="312" y="488" type="line" smooth="yes"/>
      <point x="387" y="488"/>
      <point x="441" y="453"/>
      <point x="441" y="353" type="curve" smooth="yes"/>
      <point x="441" y="291"/>
      <point x="415" y="232"/>
      <point x="302" y="232" type="curve" smooth="yes"/>
      <point x="241" y="232" type="line" smooth="yes"/>
      <point x="166" y="232"/>
      <point x="119" y="269"/>
    </contour>
    <contour>
      <point x="65" y="363" type="curve" smooth="yes"/>
      <point x="65" y="304"/>
      <point x="85" y="238"/>
      <point x="164" y="208" type="curve"/>
      <point x="107" y="197"/>
      <point x="73" y="169"/>
      <point x="73" y="116" type="curve" smooth="yes"/>
      <point x="73" y="62"/>
      <point x="118" y="28"/>
      <point x="190" y="28" type="curve" smooth="yes"/>
      <point x="363" y="28" type="line" smooth="yes"/>
      <point x="466" y="28"/>
      <point x="496" y="-12"/>
      <point x="496" y="-72" type="curve" smooth="yes"/>
      <point x="496" y="-95" type="line" smooth="yes"/>
      <point x="496" y="-166"/>
      <point x="441" y="-200"/>
      <point x="351" y="-200" type="curve" smooth="yes"/>
      <point x="222" y="-200" type="line" smooth="yes"/>
      <point x="141" y="-200"/>
      <point x="89" y="-174"/>
      <point x="89" y="-102" type="curve" smooth="yes"/>
      <point x="89" y="-77" type="line" smooth="yes"/>
      <point x="89" y="-2"/>
      <point x="153" y="28"/>
      <point x="216" y="28" type="curve"/>
      <point x="204" y="55" type="line"/>
      <point x="124" y="55"/>
      <point x="34" y="10"/>
      <point x="34" y="-85" type="curve" smooth="yes"/>
      <point x="34" y="-111" type="line" smooth="yes"/>
      <point x="34" y="-201"/>
      <point x="106" y="-244"/>
      <point x="210" y="-244" type="curve" smooth="yes"/>
      <point x="356" y="-244" type="line" smooth="yes"/>
      <point x="483" y="-244"/>
      <point x="550" y="-188"/>
      <point x="550" y="-92" type="curve" smooth="yes"/>
      <point x="550" y="-68" type="line" smooth="yes"/>
      <point x="550" y="26"/>
      <point x="494" y="74"/>
      <point x="370" y="74" type="curve" smooth="yes"/>
      <point x="184" y="74" type="line" smooth="yes"/>
      <point x="156" y="74"/>
      <point x="125" y="87"/>
      <point x="125" y="123" type="curve" smooth="yes"/>
      <point x="125" y="170"/>
      <point x="163" y="185"/>
      <point x="226" y="185" type="curve" smooth="yes"/>
      <point x="308" y="185" type="line" smooth="yes"/>
      <point x="451" y="185"/>
      <point x="495" y="268"/>
      <point x="495" y="347" type="curve" smooth="yes"/>
      <point x="495" y="447"/>
      <point x="447" y="475"/>
      <point x="418" y="492" type="curve"/>
      <point x="550" y="500" type="line"/>
      <point x="550" y="534" type="line"/>
      <point x="266" y="534" type="line" smooth="yes"/>
      <point x="148" y="534"/>
      <point x="65" y="489"/>
    </contour>
    <contour>
      <point x="289" y="650" type="move" name="top"/>
    </contour>
  </outline>
</glyph>
<glyph name="i" format="1">
  <advance width="221"/>
  <unicode hex="0069"/>
  <note>
    GF Latin Plus glyph
  </note>
  <outline>
    <contour>
      <point x="77" y="648" type="line" smooth="yes"/>
      <point x="77" y="639"/>
      <point x="83" y="633"/>
      <point x="92" y="633" type="curve" smooth="yes"/>
      <point x="131" y="633" type="line" smooth="yes"/>
      <point x="139" y="633"/>
      <point x="144" y="638"/>
      <point x="144" y="648" type="curve" smooth="yes"/>
      <point x="144" y="719" type="line" smooth="yes"/>
      <point x="144" y="728"/>
      <point x="140" y="734"/>
      <point x="131" y="734" type="curve" smooth="yes"/>
      <point x="92" y="734" type="line" smooth="yes"/>
      <point x="82" y="734"/>
      <point x="77" y="729"/>
      <point x="77" y="719" type="curve" smooth="yes"/>
    </contour>
    <component base="dotlessi"/>
    <contour>
      <point x="130" y="0" type="move" name="ogonek"/>
    </contour>
    <contour>
      <point x="111" y="-150" type="move" name="bottom"/>
    </contour>
  </outline>
</glyph>
<glyph name="m" format="1">
  <advance width="954"/>
  <unicode hex="006D"/>
  <note>
    GF Latin Plus glyph
  </note>
  <outline>
    <contour>
      <point x="82" y="0" type="line"/>
      <point x="140" y="0" type="line"/>
      <point x="140" y="433" type="line"/>
      <point x="203" y="468"/>
      <point x="251" y="489"/>
      <point x="327" y="489" type="curve" smooth="yes"/>
      <point x="404" y="489"/>
      <point x="450" y="433"/>
      <point x="450" y="360" type="curve" smooth="yes"/>
      <point x="450" y="0" type="line"/>
      <point x="508" y="0" type="line"/>
      <point x="508" y="360" type="line" smooth="yes"/>
      <point x="508" y="383"/>
      <point x="503" y="405"/>
      <point x="495" y="425" type="curve"/>
      <point x="555" y="461"/>
      <point x="628" y="489"/>
      <point x="694" y="489" type="curve" smooth="yes"/>
      <point x="772" y="489"/>
      <point x="818" y="433"/>
      <point x="818" y="360" type="curve" smooth="yes"/>
      <point x="818" y="0" type="line"/>
      <point x="876" y="0" type="line"/>
      <point x="876" y="364" type="line" smooth="yes"/>
      <point x="876" y="461"/>
      <point x="822" y="542"/>
      <point x="709" y="542" type="curve" smooth="yes"/>
      <point x="632" y="542"/>
      <point x="536" y="499"/>
      <point x="486" y="461" type="curve"/>
      <point x="461" y="508"/>
      <point x="413" y="542"/>
      <point x="346" y="542" type="curve" smooth="yes"/>
      <point x="265" y="542"/>
      <point x="195" y="510"/>
      <point x="140" y="473" type="curve"/>
      <point x="125" y="533" type="line"/>
      <point x="82" y="533" type="line"/>
    </contour>
    <contour>
      <point x="480" y="650" type="move" name="top"/>
    </contour>
    <contour>
      <point x="476" y="-150" type="move" name="bottom"/>
    </contour>
  </outline>
</glyph>
<glyph name="p" format="1">
  <advance width="576"/>
  <unicode hex="0070"/>
  <note>
    GF Latin Plus glyph
  </note>
  <outline>
    <contour>
      <point x="140" y="92" type="curve"/>
      <point x="140" y="441" type="line"/>
      <point x="185" y="464"/>
      <point x="240" y="491"/>
      <point x="309" y="491" type="curve" smooth="yes"/>
      <point x="385" y="491"/>
      <point x="456" y="427"/>
      <point x="456" y="268" type="curve" smooth="yes"/>
      <point x="456" y="99"/>
      <point x="394" y="43"/>
      <point x="309" y="43" type="curve" smooth="yes"/>
      <point x="251" y="43"/>
      <point x="192" y="63"/>
    </contour>
    <contour>
      <point x="82" y="-237" type="line"/>
      <point x="140" y="-237" type="line"/>
      <point x="140" y="49" type="line"/>
      <point x="194" y="17"/>
      <point x="261" y="-6"/>
      <point x="322" y="-6" type="curve" smooth="yes"/>
      <point x="451" y="-6"/>
      <point x="514" y="86"/>
      <point x="514" y="268" type="curve" smooth="yes"/>
      <point x="514" y="404"/>
      <point x="464" y="539"/>
      <point x="322" y="539" type="curve" smooth="yes"/>
      <point x="256" y="539"/>
      <point x="175" y="501"/>
      <point x="140" y="477" type="curve"/>
      <point x="127" y="533" type="line"/>
      <point x="82" y="533" type="line"/>
    </contour>
    <contour>
      <point x="273" y="650" type="move" name="top"/>
    </contour>
  </outline>
</glyph>
<glyph name="s" format="1">
  <advance width="498"/>
  <unicode hex="0073"/>
  <note>
    GF Latin Plus glyph
  </note>
  <outline>
    <contour>
      <point x="53" y="368" type="line" smooth="yes"/>
      <point x="53" y="270"/>
      <point x="116" y="240"/>
      <point x="213" y="240" type="curve" smooth="yes"/>
      <point x="285" y="240" type="line" smooth="yes"/>
      <point x="359" y="240"/>
      <point x="393" y="209"/>
      <point x="393" y="156" type="curve" smooth="yes"/>
      <point x="393" y="130" type="line" smooth="yes"/>
      <point x="393" y="51"/>
      <point x="342" y="40"/>
      <point x="270" y="40" type="curve" smooth="yes"/>
      <point x="57" y="40" type="line"/>
      <point x="57" y="5" type="line"/>
      <point x="90" y="-1"/>
      <point x="214" y="-6"/>
      <point x="262" y="-6" type="curve" smooth="yes"/>
      <point x="367" y="-6"/>
      <point x="445" y="19"/>
      <point x="445" y="127" type="curve" smooth="yes"/>
      <point x="445" y="161" type="line" smooth="yes"/>
      <point x="445" y="245"/>
      <point x="387" y="290"/>
      <point x="293" y="290" type="curve" smooth="yes"/>
      <point x="220" y="290" type="line" smooth="yes"/>
      <point x="151" y="290"/>
      <point x="105" y="301"/>
      <point x="105" y="372" type="curve" smooth="yes"/>
      <point x="105" y="395" type="line" smooth="yes"/>
      <point x="105" y="469"/>
      <point x="148" y="490"/>
      <point x="225" y="490" type="curve" smooth="yes"/>
      <point x="425" y="490" type="line"/>
      <point x="425" y="526" type="line"/>
      <point x="380" y="533"/>
      <point x="285" y="538"/>
      <point x="233" y="538" type="curve" smooth="yes"/>
      <point x="109" y="538"/>
      <point x="53" y="494"/>
      <point x="53" y="395" type="curve" smooth="yes"/>
    </contour>
    <contour>
      <point x="238" y="650" type="move" name="top"/>
    </contour>
    <contour>
      <point x="238" y="-150" type="move" name="bottom"/>
    </contour>
  </outline>
</glyph>
<glyph name="x" format="1">
  <advance width="497"/>
  <unicode hex="0078"/>
  <note>
    GF Latin Plus glyph
  </note>
  <outline>
    <contour>
      <point x="26" y="0" type="line"/>
      <point x="85" y="0" type="line"/>
      <point x="248" y="230" type="line"/>
      <point x="225" y="281" type="line"/>
    </contour>
    <contour>
      <point x="245" y="295" type="line"/>
      <point x="271" y="250" type="line"/>
      <point x="471" y="533" type="line"/>
      <point x="411" y="532" type="line"/>
    </contour>
    <contour>
      <point x="26" y="533" type="line"/>
      <point x="411" y="0" type="line"/>
      <point x="471" y="0" type="line"/>
      <point x="86" y="533" type="line"/>
    </contour>
  </outline>
</glyph>
<glyph name="y" format="1">
  <advance width="533"/>
  <unicode hex="0079"/>
  <note>
    GF Latin Plus glyph
  </note>
  <outline>
    <contour>
      <point x="21" y="533" type="line"/>
      <point x="157" y="119" type="line" smooth="yes"/>
      <point x="189" y="21"/>
      <point x="249" y="1"/>
      <point x="289" y="0" type="curve"/>
      <point x="218" y="-237" type="line"/>
      <point x="260" y="-237" type="line"/>
      <point x="306" y="-138" type="line"/>
      <point x="512" y="533" type="line"/>
      <point x="452" y="533" type="line"/>
      <point x="302" y="51" type="line"/>
      <point x="299" y="51"/>
      <point x="243" y="43"/>
      <point x="212" y="132" type="curve" smooth="yes"/>
      <point x="82" y="533" type="line"/>
    </contour>
    <contour>
      <point x="264" y="650" type="move" name="top"/>
    </contour>
    <contour>
      <point x="440" y="-150" type="move" name="bottom"/>
    </contour>
  </outline>
</glyph>
<glyph name="z" format="1">
  <advance width="491"/>
  <unicode hex="007A"/>
  <note>
    GF Latin Plus glyph
  </note>
  <outline>
    <contour>
      <point x="46" y="484" type="line"/>
      <point x="377" y="484" type="line"/>
      <point x="53" y="45" type="line"/>
      <point x="53" y="0" type="line"/>
      <point x="445" y="0" type="line"/>
      <point x="445" y="48" type="line"/>
      <point x="119" y="48" type="line"/>
      <point x="445" y="487" type="line"/>
      <point x="445" y="533" type="line"/>
      <point x="46" y="533" type="line"/>
    </contour>
    <contour>
      <point x="234" y="650" type="move" name="top"/>
    </contour>
    <contour>
      <point x="234" y="-150" type="move" name="bottom"/>
    </contour>
  </outline>
</glyph>
<glyph name="braceright" format="1">
  <advance width="308"/>
  <unicode hex="007D"/>
  <note>
    GF Latin Plus glyph
  </note>
  <outline>
    <contour>
      <point x="24" y="-164" type="curve"/>
      <point x="24" y="-210" type="line"/>
      <point x="178" y="-210"/>
      <point x="201" y="-125"/>
      <point x="201" y="-38" type="curve" smooth="yes"/>
      <point x="201" y="236" type="line" smooth="yes"/>
      <point x="201" y="281"/>
      <point x="244" y="308"/>
      <point x="284" y="305" type="curve"/>
      <point x="284" y="362" type="line"/>
      <point x="251" y="365"/>
      <point x="200" y="377"/>
      <point x="200" y="431" type="curve" smooth="yes"/>
      <point x="200" y="656" type="line" smooth="yes"/>
      <point x="200" y="757"/>
      <point x="163" y="842"/>
      <point x="24" y="842" type="curve"/>
      <point x="24" y="794" type="line"/>
      <point x="103" y="794"/>
      <point x="142" y="757"/>
      <point x="142" y="640" type="curve" smooth="yes"/>
      <point x="142" y="424" type="line" smooth="yes"/>
      <point x="142" y="371"/>
      <point x="179" y="340"/>
      <point x="227" y="334" type="curve"/>
      <point x="179" y="327"/>
      <point x="143" y="292"/>
      <point x="143" y="247" type="curve" smooth="yes"/>
      <point x="143" y="-24" type="line" smooth="yes"/>
      <point x="143" y="-129"/>
      <point x="106" y="-164"/>
    </contour>
  </outline>
</glyph>
<glyph name="asciitilde" format="1">
  <advance width="459"/>
  <unicode hex="007E"/>
  <note>
    GF Latin Plus glyph
  </note>
  <outline>
    <contour>
      <point x="60" y="577" type="curve"/>
      <point x="69" y="557" type="line"/>
      <point x="104" y="583"/>
      <point x="131" y="604"/>
      <point x="167" y="604" type="curve" smooth="yes"/>
      <point x="199" y="604"/>
      <point x="247" y="539"/>
      <point x="293" y="539" type="curve" smooth="yes"/>
      <point x="337" y="539"/>
      <point x="369" y="570"/>
      <point x="400" y="603" type="curve"/>
      <point x="390" y="623" type="line"/>
      <point x="367" y="604"/>
      <point x="331" y="573"/>
      <point x="293" y="573" type="curve" smooth="yes"/>
      <point x="262" y="573"/>
      <point x="213" y="638"/>
      <point x="169" y="638" type="curve" smooth="yes"/>
      <point x="127" y="638"/>
      <point x="92" y="608"/>
    </contour>
  </outline>
</glyph>
<glyph name="cent" format="1">
  <advance width="487"/>
  <unicode hex="00A2"/>
  <note>
    GF Latin Plus glyph
  </note>
  <outline>
    <contour>
      <point x="48" y="266" type="curve" smooth="yes"/>
      <point x="48" y="36"/>
      <point x="135" y="-5"/>
      <point x="244" y="-5" type="curve"/>
      <point x="244" y="-85" type="line"/>
      <point x="280" y="-85" type="line"/>
      <point x="280" y="-4" type="line"/>
      <point x="337" y="-1"/>
      <point x="378" y="5"/>
      <point x="440" y="26" type="curve"/>
      <point x="440" y="61" type="line"/>
      <point x="384" y="50"/>
      <point x="338" y="41"/>
      <point x="258" y="41" type="curve" smooth="yes"/>
      <point x="163" y="41"/>
      <point x="106" y="77"/>
      <point x="106" y="262" type="curve" smooth="yes"/>
      <point x="106" y="457"/>
      <point x="158" y="490"/>
      <point x="253" y="490" type="curve" smooth="yes"/>
      <point x="332" y="490"/>
      <point x="388" y="483"/>
      <point x="433" y="474" type="curve"/>
      <point x="433" y="508" type="line"/>
      <point x="386" y="521"/>
      <point x="327" y="532"/>
      <point x="281" y="535" type="curve"/>
      <point x="281" y="621" type="line"/>
      <point x="245" y="621" type="line"/>
      <point x="245" y="536" type="line"/>
      <point x="128" y="536"/>
      <point x="48" y="496"/>
    </contour>
  </outline>
</glyph>
<glyph name="sterling" format="1">
  <advance width="609"/>
  <unicode hex="00A3"/>
  <note>
    GF Latin Plus glyph
  </note>
  <outline>
    <contour>
      <point x="65" y="0" type="line"/>
      <point x="539" y="0" type="line"/>
      <point x="539" y="52" type="line"/>
      <point x="237" y="52" type="line"/>
      <point x="237" y="339" type="line"/>
      <point x="461" y="344" type="line"/>
      <point x="461" y="378" type="line"/>
      <point x="237" y="384" type="line"/>
      <point x="237" y="529" type="line" smooth="yes"/>
      <point x="237" y="658"/>
      <point x="288" y="683"/>
      <point x="385" y="683" type="curve" smooth="yes"/>
      <point x="525" y="683" type="line"/>
      <point x="525" y="727" type="line"/>
      <point x="490" y="730"/>
      <point x="434" y="735"/>
      <point x="382" y="735" type="curve" smooth="yes"/>
      <point x="259" y="735"/>
      <point x="179" y="695"/>
      <point x="179" y="524" type="curve" smooth="yes"/>
      <point x="179" y="384" type="line"/>
      <point x="65" y="376" type="line"/>
      <point x="65" y="344" type="line"/>
      <point x="179" y="339" type="line"/>
      <point x="179" y="52" type="line"/>
      <point x="65" y="43" type="line"/>
    </contour>
  </outline>
</glyph>
<glyph name="currency" format="1">
  <advance width="609"/>
  <unicode hex="00A4"/>
  <note>
    GF Latin Plus glyph
  </note>
  <outline>
    <contour>
      <point x="304" y="517" type="curve" smooth="yes"/>
      <point x="216" y="517"/>
      <point x="144" y="444"/>
      <point x="144" y="356" type="curve" smooth="yes"/>
      <point x="144" y="268"/>
      <point x="216" y="195"/>
      <point x="304" y="195" type="curve" smooth="yes"/>
      <point x="392" y="195"/>
      <point x="465" y="268"/>
      <point x="465" y="356" type="curve" smooth="yes"/>
      <point x="465" y="444"/>
      <point x="392" y="517"/>
    </contour>
    <contour>
      <point x="214" y="475" type="line"/>
      <point x="110" y="579" type="line"/>
      <point x="81" y="550" type="line"/>
      <point x="185" y="446" type="line"/>
    </contour>
    <contour>
      <point x="421" y="444" type="line"/>
      <point x="527" y="550" type="line"/>
      <point x="498" y="579" type="line"/>
      <point x="392" y="473" type="line"/>
    </contour>
    <contour>
      <point x="527" y="162" type="line"/>
      <point x="421" y="268" type="line"/>
      <point x="392" y="239" type="line"/>
      <point x="498" y="133" type="line"/>
    </contour>
    <contour>
      <point x="110" y="133" type="line"/>
      <point x="218" y="241" type="line"/>
      <point x="189" y="270" type="line"/>
      <point x="81" y="162" type="line"/>
    </contour>
    <contour>
      <point x="304" y="479" type="curve" smooth="yes"/>
      <point x="372" y="479"/>
      <point x="427" y="424"/>
      <point x="427" y="356" type="curve" smooth="yes"/>
      <point x="427" y="289"/>
      <point x="372" y="233"/>
      <point x="304" y="233" type="curve" smooth="yes"/>
      <point x="237" y="233"/>
      <point x="183" y="289"/>
      <point x="183" y="356" type="curve" smooth="yes"/>
      <point x="183" y="424"/>
      <point x="237" y="479"/>
    </contour>
  </outline>
</glyph>
<glyph name="section" format="1">
  <advance width="554"/>
  <unicode hex="00A7"/>
  <note>
    GF Latin Plus glyph
  </note>
  <outline>
    <contour>
      <point x="114" y="357" type="curve" smooth="yes"/>
      <point x="114" y="411" type="line" smooth="yes"/>
      <point x="114" y="469"/>
      <point x="137" y="483"/>
      <point x="213" y="483" type="curve" smooth="yes"/>
      <point x="339" y="483" type="line" smooth="yes"/>
      <point x="422" y="483"/>
      <point x="441" y="470"/>
      <point x="441" y="413" type="curve" smooth="yes"/>
      <point x="441" y="358" type="line" smooth="yes"/>
      <point x="441" y="295"/>
      <point x="429" y="290"/>
      <point x="339" y="290" type="curve" smooth="yes"/>
      <point x="213" y="290" type="line" smooth="yes"/>
      <point x="132" y="290"/>
      <point x="114" y="315"/>
    </contour>
    <contour>
      <point x="58" y="347" type="line" smooth="yes"/>
      <point x="58" y="270"/>
      <point x="100" y="244"/>
      <point x="203" y="244" type="curve" smooth="yes"/>
      <point x="339" y="244" type="line" smooth="yes"/>
      <point x="421" y="244"/>
      <point x="431" y="231"/>
      <point x="431" y="182" type="curve" smooth="yes"/>
      <point x="431" y="121" type="line" smooth="yes"/>
      <point x="431" y="75"/>
      <point x="411" y="42"/>
      <point x="308" y="42" type="curve" smooth="yes"/>
      <point x="102" y="42" type="line"/>
      <point x="102" y="2" type="line"/>
      <point x="143" y="-3"/>
      <point x="266" y="-6"/>
      <point x="316" y="-6" type="curve" smooth="yes"/>
      <point x="425" y="-6"/>
      <point x="488" y="25"/>
      <point x="488" y="120" type="curve" smooth="yes"/>
      <point x="488" y="187" type="line" smooth="yes"/>
      <point x="488" y="226"/>
      <point x="482" y="266"/>
      <point x="433" y="277" type="curve"/>
      <point x="480" y="285"/>
      <point x="497" y="309"/>
      <point x="497" y="367" type="curve" smooth="yes"/>
      <point x="497" y="423" type="line" smooth="yes"/>
      <point x="497" y="500"/>
      <point x="468" y="529"/>
      <point x="348" y="529" type="curve" smooth="yes"/>
      <point x="214" y="529" type="line" smooth="yes"/>
      <point x="153" y="529"/>
      <point x="123" y="540"/>
      <point x="123" y="592" type="curve" smooth="yes"/>
      <point x="123" y="649" type="line" smooth="yes"/>
      <point x="123" y="722"/>
      <point x="164" y="736"/>
      <point x="231" y="736" type="curve" smooth="yes"/>
      <point x="451" y="736" type="line"/>
      <point x="451" y="775" type="line"/>
      <point x="412" y="781"/>
      <point x="275" y="784"/>
      <point x="225" y="784" type="curve" smooth="yes"/>
      <point x="124" y="784"/>
      <point x="67" y="750"/>
      <point x="67" y="656" type="curve" smooth="yes"/>
      <point x="67" y="590" type="line" smooth="yes"/>
      <point x="67" y="550"/>
      <point x="80" y="508"/>
      <point x="124" y="497" type="curve"/>
      <point x="81" y="487"/>
      <point x="58" y="467"/>
      <point x="58" y="403" type="curve" smooth="yes"/>
    </contour>
  </outline>
</glyph>
<glyph name="dieresis" format="1">
  <advance width="417"/>
  <unicode hex="00A8"/>
  <note>
    GF Latin Plus glyph
  </note>
  <outline>
    <contour>
      <point x="84" y="672" type="line" smooth="yes"/>
      <point x="84" y="664"/>
      <point x="90" y="658"/>
      <point x="98" y="658" type="curve" smooth="yes"/>
      <point x="125" y="658" type="line" smooth="yes"/>
      <point x="134" y="658"/>
      <point x="139" y="663"/>
      <point x="139" y="672" type="curve" smooth="yes"/>
      <point x="139" y="744" type="line" smooth="yes"/>
      <point x="139" y="753"/>
      <point x="135" y="759"/>
      <point x="125" y="759" type="curve" smooth="yes"/>
      <point x="98" y="759" type="line" smooth="yes"/>
      <point x="89" y="759"/>
      <point x="84" y="754"/>
      <point x="84" y="744" type="curve" smooth="yes"/>
    </contour>
    <contour>
      <point x="279" y="672" type="line" smooth="yes"/>
      <point x="279" y="664"/>
      <point x="285" y="658"/>
      <point x="293" y="658" type="curve" smooth="yes"/>
      <point x="320" y="658" type="line" smooth="yes"/>
      <point x="328" y="658"/>
      <point x="334" y="663"/>
      <point x="334" y="672" type="curve" smooth="yes"/>
      <point x="334" y="744" type="line" smooth="yes"/>
      <point x="334" y="753"/>
      <point x="329" y="759"/>
      <point x="320" y="759" type="curve" smooth="yes"/>
      <point x="293" y="759" type="line" smooth="yes"/>
      <point x="283" y="759"/>
      <point x="279" y="754"/>
      <point x="279" y="744" type="curve" smooth="yes"/>
    </contour>
  </outline>
</glyph>
<glyph name="copyright" format="1">
  <advance width="850"/>
  <unicode hex="00A9"/>
  <note>
    GF Latin Plus glyph
  </note>
  <outline>
    <contour>
      <point x="242" y="365" type="curve" smooth="yes"/>
      <point x="242" y="188"/>
      <point x="310" y="147"/>
      <point x="390" y="147" type="curve" smooth="yes"/>
      <point x="456" y="147"/>
      <point x="511" y="150"/>
      <point x="572" y="169" type="curve"/>
      <point x="572" y="195" type="line"/>
      <point x="527" y="185"/>
      <point x="466" y="179"/>
      <point x="398" y="179" type="curve" smooth="yes"/>
      <point x="310" y="179"/>
      <point x="276" y="244"/>
      <point x="276" y="362" type="curve" smooth="yes"/>
      <point x="276" y="500"/>
      <point x="322" y="551"/>
      <point x="398" y="551" type="curve" smooth="yes"/>
      <point x="430" y="551"/>
      <point x="505" y="548"/>
      <point x="566" y="539" type="curve"/>
      <point x="566" y="565" type="line"/>
      <point x="511" y="577"/>
      <point x="430" y="583"/>
      <point x="390" y="583" type="curve" smooth="yes"/>
      <point x="305" y="583"/>
      <point x="242" y="526"/>
    </contour>
    <contour>
      <point x="99" y="368" type="curve" smooth="yes"/>
      <point x="102" y="628"/>
      <point x="207" y="700"/>
      <point x="314" y="700" type="curve" smooth="yes"/>
      <point x="558" y="700" type="line" smooth="yes"/>
      <point x="705" y="700"/>
      <point x="750" y="545"/>
      <point x="750" y="368" type="curve" smooth="yes"/>
      <point x="750" y="142"/>
      <point x="665" y="32"/>
      <point x="556" y="32" type="curve" smooth="yes"/>
      <point x="314" y="32" type="line" smooth="yes"/>
      <point x="166" y="32"/>
      <point x="98" y="211"/>
    </contour>
    <contour>
      <point x="65" y="368" type="curve" smooth="yes"/>
      <point x="65" y="217"/>
      <point x="128" y="0"/>
      <point x="314" y="0" type="curve" smooth="yes"/>
      <point x="558" y="0" type="line" smooth="yes"/>
      <point x="709" y="0"/>
      <point x="784" y="162"/>
      <point x="784" y="368" type="curve" smooth="yes"/>
      <point x="784" y="510"/>
      <point x="756" y="732"/>
      <point x="558" y="732" type="curve" smooth="yes"/>
      <point x="314" y="732" type="line" smooth="yes"/>
      <point x="114" y="732"/>
      <point x="65" y="537"/>
    </contour>
  </outline>
</glyph>
<glyph name="registered" format="1">
  <advance width="850"/>
  <unicode hex="00AE"/>
  <note>
    GF Latin Plus glyph
  </note>
  <outline>
    <contour>
      <point x="309" y="367" type="line"/>
      <point x="309" y="548" type="line"/>
      <point x="458" y="548" type="line" smooth="yes"/>
      <point x="512" y="548"/>
      <point x="546" y="525"/>
      <point x="546" y="451" type="curve" smooth="yes"/>
      <point x="546" y="379"/>
      <point x="516" y="367"/>
      <point x="458" y="367" type="curve" smooth="yes"/>
    </contour>
    <contour>
      <point x="275" y="153" type="line"/>
      <point x="309" y="153" type="line"/>
      <point x="309" y="343" type="line"/>
      <point x="444" y="339" type="line"/>
      <point x="548" y="153" type="line"/>
      <point x="584" y="153" type="line"/>
      <point x="479" y="339" type="line"/>
      <point x="514" y="345"/>
      <point x="580" y="344"/>
      <point x="580" y="452" type="curve" smooth="yes"/>
      <point x="580" y="559"/>
      <point x="520" y="580"/>
      <point x="454" y="580" type="curve" smooth="yes"/>
      <point x="275" y="580" type="line"/>
    </contour>
    <contour>
      <point x="99" y="368" type="curve" smooth="yes"/>
      <point x="102" y="628"/>
      <point x="207" y="700"/>
      <point x="314" y="700" type="curve" smooth="yes"/>
      <point x="558" y="700" type="line" smooth="yes"/>
      <point x="705" y="700"/>
      <point x="750" y="545"/>
      <point x="750" y="368" type="curve" smooth="yes"/>
      <point x="750" y="142"/>
      <point x="665" y="32"/>
      <point x="556" y="32" type="curve" smooth="yes"/>
      <point x="314" y="32" type="line" smooth="yes"/>
      <point x="166" y="32"/>
      <point x="98" y="211"/>
    </contour>
    <contour>
      <point x="65" y="368" type="curve" smooth="yes"/>
      <point x="65" y="217"/>
      <point x="128" y="0"/>
      <point x="314" y="0" type="curve" smooth="yes"/>
      <point x="558" y="0" type="line" smooth="yes"/>
      <point x="709" y="0"/>
      <point x="784" y="162"/>
      <point x="784" y="368" type="curve" smooth="yes"/>
      <point x="784" y="510"/>
      <point x="756" y="732"/>
      <point x="558" y="732" type="curve" smooth="yes"/>
      <point x="314" y="732" type="line" smooth="yes"/>
      <point x="114" y="732"/>
      <point x="65" y="537"/>
    </contour>
  </outline>
</glyph>
<glyph name="macron" format="1">
  <advance width="379"/>
  <unicode hex="00AF"/>
  <note>
    GF Latin Plus glyph
  </note>
  <outline>
    <contour>
      <point x="60" y="679" type="line"/>
      <point x="320" y="679" type="line"/>
      <point x="320" y="714" type="line"/>
      <point x="60" y="714" type="line"/>
    </contour>
  </outline>
</glyph>
<glyph name="degree" format="1">
  <advance width="333"/>
  <unicode hex="00B0"/>
  <note>
    GF Latin Plus glyph
  </note>
  <outline>
    <contour>
      <point x="68" y="630" type="curve" smooth="yes"/>
      <point x="68" y="688"/>
      <point x="110" y="730"/>
      <point x="167" y="730" type="curve" smooth="yes"/>
      <point x="225" y="730"/>
      <point x="265" y="688"/>
      <point x="265" y="630" type="curve" smooth="yes"/>
      <point x="265" y="572"/>
      <point x="224" y="531"/>
      <point x="167" y="531" type="curve" smooth="yes"/>
      <point x="110" y="531"/>
      <point x="68" y="572"/>
    </contour>
    <contour>
      <point x="39" y="630" type="curve" smooth="yes"/>
      <point x="39" y="555"/>
      <point x="94" y="502"/>
      <point x="167" y="502" type="curve" smooth="yes"/>
      <point x="241" y="502"/>
      <point x="293" y="555"/>
      <point x="293" y="630" type="curve" smooth="yes"/>
      <point x="293" y="705"/>
      <point x="241" y="759"/>
      <point x="167" y="759" type="curve" smooth="yes"/>
      <point x="94" y="759"/>
      <point x="39" y="705"/>
    </contour>
  </outline>
</glyph>
<glyph name="paragraph" format="1">
  <advance width="572"/>
  <unicode hex="00B6"/>
  <note>
    GF Latin Plus glyph
  </note>
  <outline>
    <contour>
      <point x="84" y="470" type="curve" smooth="yes"/>
      <point x="84" y="586" type="line" smooth="yes"/>
      <point x="84" y="647"/>
      <point x="124" y="690"/>
      <point x="206" y="690" type="curve" smooth="yes"/>
      <point x="282" y="690" type="line"/>
      <point x="282" y="356" type="line"/>
      <point x="206" y="356" type="line" smooth="yes"/>
      <point x="176" y="356"/>
      <point x="84" y="368"/>
    </contour>
    <contour>
      <point x="40" y="464" type="line" smooth="yes"/>
      <point x="40" y="382"/>
      <point x="93" y="312"/>
      <point x="201" y="312" type="curve"/>
      <point x="244" y="311"/>
      <point x="272" y="317"/>
      <point x="282" y="324" type="curve"/>
      <point x="282" y="-270" type="line"/>
      <point x="326" y="-270" type="line"/>
      <point x="326" y="690" type="line"/>
      <point x="428" y="690" type="line"/>
      <point x="428" y="0" type="line"/>
      <point x="472" y="0" type="line"/>
      <point x="472" y="688" type="line"/>
      <point x="553" y="688" type="line"/>
      <point x="553" y="734" type="line"/>
      <point x="204" y="734" type="line" smooth="yes"/>
      <point x="119" y="734"/>
      <point x="40" y="689"/>
      <point x="40" y="594" type="curve" smooth="yes"/>
    </contour>
  </outline>
</glyph>
<glyph name="periodcentered" format="1">
  <advance width="263"/>
  <unicode hex="00B7"/>
  <note>
    GF Latin Plus glyph
  </note>
  <outline>
    <contour>
      <point x="102" y="358" type="line" smooth="yes"/>
      <point x="102" y="350"/>
      <point x="108" y="344"/>
      <point x="116" y="344" type="curve" smooth="yes"/>
      <point x="147" y="344" type="line" smooth="yes"/>
      <point x="156" y="344"/>
      <point x="162" y="348"/>
      <point x="162" y="358" type="curve" smooth="yes"/>
      <point x="162" y="391" type="line" smooth="yes"/>
      <point x="162" y="400"/>
      <point x="157" y="406"/>
      <point x="147" y="406" type="curve" smooth="yes"/>
      <point x="116" y="406" type="line" smooth="yes"/>
      <point x="106" y="406"/>
      <point x="102" y="401"/>
      <point x="102" y="391" type="curve" smooth="yes"/>
    </contour>
  </outline>
</glyph>
<glyph name="germandbls" format="1">
  <advance width="577"/>
  <unicode hex="00DF"/>
  <note>
    GF Latin Plus glyph
  </note>
  <outline>
    <contour>
      <point x="72" y="0" type="line"/>
      <point x="130" y="0" type="line"/>
      <point x="130" y="548" type="line" smooth="yes"/>
      <point x="130" y="659"/>
      <point x="188" y="718"/>
      <point x="292" y="718" type="curve" smooth="yes"/>
      <point x="393" y="718"/>
      <point x="447" y="680"/>
      <point x="447" y="606" type="curve" smooth="yes"/>
      <point x="447" y="495"/>
      <point x="283" y="460"/>
      <point x="283" y="345" type="curve" smooth="yes"/>
      <point x="283" y="211"/>
      <point x="498" y="268"/>
      <point x="498" y="163" type="curve" smooth="yes"/>
      <point x="498" y="137" type="line" smooth="yes"/>
      <point x="498" y="100"/>
      <point x="478" y="40"/>
      <point x="378" y="40" type="curve" smooth="yes"/>
      <point x="317" y="40"/>
      <point x="258" y="43"/>
      <point x="222" y="45" type="curve"/>
      <point x="222" y="8" type="line"/>
      <point x="256" y="0"/>
      <point x="323" y="-8"/>
      <point x="389" y="-8" type="curve" smooth="yes"/>
      <point x="479" y="-8"/>
      <point x="554" y="38"/>
      <point x="554" y="136" type="curve" smooth="yes"/>
      <point x="554" y="166" type="line" smooth="yes"/>
      <point x="554" y="307"/>
      <point x="339" y="254"/>
      <point x="339" y="352" type="curve" smooth="yes"/>
      <point x="339" y="445"/>
      <point x="502" y="476"/>
      <point x="502" y="609" type="curve" smooth="yes"/>
      <point x="502" y="696"/>
      <point x="447" y="768"/>
      <point x="293" y="768" type="curve" smooth="yes"/>
      <point x="141" y="768"/>
      <point x="72" y="672"/>
      <point x="72" y="552" type="curve" smooth="yes"/>
    </contour>
  </outline>
</glyph>
<glyph name="dcroat" format="1">
  <advance width="572"/>
  <unicode hex="0111"/>
  <note>
    GF Latin Plus glyph
  </note>
  <outline>
    <contour>
      <point x="290" y="633" type="line"/>
      <point x="566" y="633" type="line"/>
      <point x="566" y="661" type="line"/>
      <point x="290" y="661" type="line"/>
    </contour>
    <component base="d"/>
  </outline>
</glyph>
<glyph name="hbar" format="1">
  <advance width="586"/>
  <unicode hex="0127"/>
  <note>
    GF Latin Plus glyph
  </note>
  <outline>
    <contour>
      <point x="6" y="633" type="line"/>
      <point x="282" y="633" type="line"/>
      <point x="282" y="661" type="line"/>
      <point x="6" y="661" type="line"/>
    </contour>
    <component base="h"/>
  </outline>
</glyph>
<glyph name="dotlessi" format="1">
  <advance width="218"/>
  <unicode hex="0131"/>
  <outline>
    <contour>
      <point x="82" y="0" type="line"/>
      <point x="140" y="0" type="line"/>
      <point x="140" y="533" type="line"/>
      <point x="82" y="533" type="line"/>
    </contour>
    <contour>
      <point x="111" y="650" type="move" name="top"/>
    </contour>
    <contour>
      <point x="130" y="0" type="move" name="ogonek"/>
    </contour>
    <contour>
      <point x="111" y="-150" type="move" name="bottom"/>
    </contour>
  </outline>
</glyph>
<glyph name="Lslash" format="1">
  <advance width="531"/>
  <unicode hex="0141"/>
  <note>
    GF Latin Plus glyph
  </note>
  <outline>
    <contour>
      <point x="3" y="317" type="line"/>
      <point x="90" y="354" type="line"/>
      <point x="133" y="366" type="line"/>
      <point x="278" y="429" type="line"/>
      <point x="278" y="465" type="line"/>
      <point x="133" y="402" type="line"/>
      <point x="90" y="391" type="line"/>
      <point x="3" y="354" type="line"/>
    </contour>
    <component base="L"/>
  </outline>
</glyph>
<glyph name="lslash" format="1">
  <advance width="288"/>
  <unicode hex="0142"/>
  <note>
    GF Latin Plus glyph
  </note>
  <outline>
    <contour>
      <point x="6" y="362" type="line"/>
      <point x="82" y="389" type="line"/>
      <point x="140" y="408" type="line"/>
      <point x="246" y="444" type="line"/>
      <point x="246" y="481" type="line"/>
      <point x="140" y="445" type="line"/>
      <point x="82" y="426" type="line"/>
      <point x="6" y="399" type="line"/>
    </contour>
    <component base="l"/>
  </outline>
</glyph>
<glyph name="Eng" format="1">
  <advance width="674"/>
  <unicode hex="014A"/>
  <note>
    GF Latin Plus glyph
  </note>
  <outline>
    <contour>
      <point x="326" y="-219" type="line"/>
      <point x="353" y="-232"/>
      <point x="400" y="-243"/>
      <point x="437" y="-243" type="curve" smooth="yes"/>
      <point x="551" y="-243"/>
      <point x="610" y="-203"/>
      <point x="610" y="-82" type="curve" smooth="yes"/>
      <point x="610" y="33" type="line"/>
      <point x="552" y="33" type="line"/>
      <point x="552" y="-76" type="line" smooth="yes"/>
      <point x="552" y="-170"/>
      <point x="502" y="-191"/>
      <point x="429" y="-191" type="curve" smooth="yes"/>
      <point x="404" y="-191"/>
      <point x="349" y="-183"/>
      <point x="326" y="-175" type="curve"/>
    </contour>
    <component base="N"/>
  </outline>
</glyph>
<glyph name="oe" format="1">
  <advance width="934"/>
  <unicode hex="0153"/>
  <note>
    GF Latin Plus glyph
  </note>
  <outline>
    <contour>
      <point x="511" y="282" type="line"/>
      <point x="511" y="429"/>
      <point x="546" y="494"/>
      <point x="665" y="494" type="curve" smooth="yes"/>
      <point x="768" y="494"/>
      <point x="819" y="476"/>
      <point x="819" y="365" type="curve" smooth="yes"/>
      <point x="819" y="296"/>
      <point x="780" y="282"/>
      <point x="722" y="282" type="curve" smooth="yes"/>
    </contour>
    <contour>
      <point x="463" y="268" type="curve" smooth="yes"/>
      <point x="463" y="67"/>
      <point x="530" y="-6"/>
      <point x="668" y="-6" type="curve" smooth="yes"/>
      <point x="742" y="-6"/>
      <point x="799" y="-1"/>
      <point x="860" y="5" type="curve"/>
      <point x="860" y="40" type="line"/>
      <point x="682" y="40" type="line" smooth="yes"/>
      <point x="563" y="40"/>
      <point x="512" y="99"/>
      <point x="512" y="241" type="curve"/>
      <point x="732" y="241" type="line" smooth="yes"/>
      <point x="816" y="241"/>
      <point x="872" y="276"/>
      <point x="872" y="361" type="curve" smooth="yes"/>
      <point x="872" y="510"/>
      <point x="796" y="539"/>
      <point x="665" y="539" type="curve" smooth="yes"/>
      <point x="516" y="539"/>
      <point x="463" y="460"/>
    </contour>
    <contour>
      <point x="120" y="267" type="curve" smooth="yes"/>
      <point x="120" y="467"/>
      <point x="179" y="493"/>
      <point x="288" y="493" type="curve" smooth="yes"/>
      <point x="396" y="493"/>
      <point x="457" y="467"/>
      <point x="457" y="267" type="curve" smooth="yes"/>
      <point x="457" y="67"/>
      <point x="396" y="41"/>
      <point x="288" y="41" type="curve" smooth="yes"/>
      <point x="179" y="41"/>
      <point x="120" y="67"/>
    </contour>
    <contour>
      <point x="62" y="267" type="curve" smooth="yes"/>
      <point x="62" y="43"/>
      <point x="139" y="-6"/>
      <point x="285" y="-6" type="curve" smooth="yes"/>
      <point x="429" y="-6"/>
      <point x="506" y="42"/>
      <point x="506" y="267" type="curve" smooth="yes"/>
      <point x="506" y="493"/>
      <point x="429" y="539"/>
      <point x="288" y="539" type="curve" smooth="yes"/>
      <point x="140" y="539"/>
      <point x="62" y="494"/>
    </contour>
  </outline>
</glyph>
<glyph name="circumflex" format="1">
  <advance width="401"/>
  <unicode hex="02C6"/>
  <note>
    GF Latin Plus glyph
  </note>
  <outline>
    <contour>
      <point x="186" y="764" type="line"/>
      <point x="60" y="631" type="line"/>
      <point x="97" y="631" type="line"/>
      <point x="206" y="735" type="line"/>
      <point x="305" y="631" type="line"/>
      <point x="342" y="631" type="line"/>
      <point x="228" y="764" type="line"/>
    </contour>
  </outline>
</glyph>
<glyph name="ring" format="1">
  <advance width="334"/>
  <unicode hex="02DA"/>
  <note>
    GF Latin Plus glyph
  </note>
  <outline>
    <contour>
      <point x="90" y="701" type="curve" smooth="yes"/>
      <point x="90" y="763"/>
      <point x="116" y="780"/>
      <point x="168" y="780" type="curve" smooth="yes"/>
      <point x="220" y="780"/>
      <point x="244" y="763"/>
      <point x="244" y="701" type="curve" smooth="yes"/>
      <point x="244" y="639"/>
      <point x="220" y="623"/>
      <point x="168" y="623" type="curve" smooth="yes"/>
      <point x="116" y="623"/>
      <point x="90" y="639"/>
    </contour>
    <contour>
      <point x="60" y="701" type="curve" smooth="yes"/>
      <point x="60" y="622"/>
      <point x="98" y="596"/>
      <point x="168" y="596" type="curve" smooth="yes"/>
      <point x="238" y="596"/>
      <point x="274" y="622"/>
      <point x="274" y="701" type="curve" smooth="yes"/>
      <point x="274" y="780"/>
      <point x="238" y="807"/>
      <point x="168" y="807" type="curve" smooth="yes"/>
      <point x="98" y="807"/>
      <point x="60" y="780"/>
    </contour>
  </outline>
</glyph>
<glyph name="ogonek" format="1">
  <advance width="246"/>
  <unicode hex="02DB"/>
  <note>
    GF Latin Plus glyph
  </note>
  <outline>
    <contour>
      <point x="135" y="0" type="line"/>
      <point x="81" y="-25"/>
      <point x="57" y="-60"/>
      <point x="57" y="-97" type="curve" smooth="yes"/>
      <point x="57" y="-148"/>
      <point x="98" y="-185"/>
      <point x="163" y="-185" type="curve" smooth="yes"/>
      <point x="171" y="-185"/>
      <point x="179" y="-184"/>
      <point x="187" y="-183" type="curve"/>
      <point x="187" y="-154" type="line"/>
      <point x="181" y="-154" type="line" smooth="yes"/>
      <point x="122" y="-154"/>
      <point x="91" y="-128"/>
      <point x="91" y="-85" type="curve" smooth="yes"/>
      <point x="91" y="-53"/>
      <point x="114" y="-23"/>
      <point x="159" y="0" type="curve"/>
    </contour>
  </outline>
</glyph>
<glyph name="tilde" format="1">
  <advance width="459"/>
  <unicode hex="02DC"/>
  <note>
    GF Latin Plus glyph
  </note>
  <outline>
    <contour>
      <point x="57" y="652" type="curve"/>
      <point x="88" y="652" type="line"/>
      <point x="88" y="699"/>
      <point x="118" y="718"/>
      <point x="152" y="718" type="curve" smooth="yes"/>
      <point x="205" y="718"/>
      <point x="251" y="653"/>
      <point x="310" y="653" type="curve" smooth="yes"/>
      <point x="369" y="653"/>
      <point x="404" y="692"/>
      <point x="405" y="754" type="curve"/>
      <point x="374" y="754" type="line"/>
      <point x="374" y="710"/>
      <point x="345" y="687"/>
      <point x="308" y="687" type="curve" smooth="yes"/>
      <point x="257" y="687"/>
      <point x="213" y="752"/>
      <point x="150" y="752" type="curve" smooth="yes"/>
      <point x="106" y="752"/>
      <point x="59" y="727"/>
    </contour>
  </outline>
</glyph>
<glyph name="pi" format="1">
  <advance width="612"/>
  <unicode hex="03C0"/>
  <outline>
    <contour>
      <point x="24" y="479" type="line"/>
      <point x="130" y="479" type="line"/>
      <point x="130" y="0" type="line"/>
      <point x="188" y="0" type="line"/>
      <point x="188" y="479" type="line"/>
      <point x="367" y="479" type="line"/>
      <point x="367" y="126" type="line" smooth="yes"/>
      <point x="367" y="31"/>
      <point x="405" y="-6"/>
      <point x="476" y="-6" type="curve" smooth="yes"/>
      <point x="507" y="-6"/>
      <point x="533" y="1"/>
      <point x="550" y="10" type="curve"/>
      <point x="550" y="44" type="line"/>
      <point x="492" y="44" type="line" smooth="yes"/>
      <point x="446" y="44"/>
      <point x="425" y="66"/>
      <point x="425" y="128" type="curve" smooth="yes"/>
      <point x="425" y="479" type="line"/>
      <point x="542" y="479" type="line"/>
      <point x="542" y="533" type="line"/>
      <point x="24" y="533" type="line"/>
    </contour>
  </outline>
</glyph>
<glyph name="quoteleft" format="1">
  <advance width="174"/>
  <unicode hex="2018"/>
  <note>
    GF Latin Plus glyph
  </note>
  <outline>
    <contour>
      <point x="57" y="555" type="line" smooth="yes"/>
      <point x="57" y="545"/>
      <point x="60" y="537"/>
      <point x="69" y="537" type="curve" smooth="yes"/>
      <point x="103" y="537" type="line" smooth="yes"/>
      <point x="114" y="537"/>
      <point x="119" y="543"/>
      <point x="119" y="555" type="curve" smooth="yes"/>
      <point x="119" y="628" type="line" smooth="yes"/>
      <point x="119" y="640"/>
      <point x="112" y="646"/>
      <point x="103" y="646" type="curve" smooth="yes"/>
      <point x="95" y="646" type="line"/>
      <point x="95" y="703" type="line" smooth="yes"/>
      <point x="95" y="716"/>
      <point x="100" y="724"/>
      <point x="116" y="724" type="curve"/>
      <point x="116" y="744" type="line"/>
      <point x="112" y="745"/>
      <point x="108" y="746"/>
      <point x="101" y="746" type="curve" smooth="yes"/>
      <point x="84" y="746"/>
      <point x="57" y="739"/>
      <point x="57" y="694" type="curve" smooth="yes"/>
    </contour>
  </outline>
</glyph>
<glyph name="dagger" format="1">
  <advance width="416"/>
  <unicode hex="2020"/>
  <note>
    GF Latin Plus glyph
  </note>
  <outline>
    <contour>
      <point x="24" y="494" type="line"/>
      <point x="178" y="487" type="line"/>
      <point x="184" y="-72" type="line"/>
      <point x="230" y="-72" type="line"/>
      <point x="237" y="487" type="line"/>
      <point x="392" y="494" type="line"/>
      <point x="392" y="535" type="line"/>
      <point x="237" y="542" type="line"/>
      <point x="231" y="770" type="line"/>
      <point x="185" y="770" type="line"/>
      <point x="178" y="542" type="line"/>
      <point x="24" y="535" type="line"/>
    </contour>
  </outline>
</glyph>
<glyph name="bullet" format="1">
  <advance width="318"/>
  <unicode hex="2022"/>
  <note>
    GF Latin Plus glyph
  </note>
  <outline>
    <contour>
      <point x="102" y="354" type="line" smooth="yes"/>
      <point x="102" y="334"/>
      <point x="115" y="322"/>
      <point x="135" y="322" type="curve" smooth="yes"/>
      <point x="183" y="322" type="line" smooth="yes"/>
      <point x="203" y="322"/>
      <point x="218" y="330"/>
      <point x="218" y="354" type="curve" smooth="yes"/>
      <point x="218" y="408" type="line" smooth="yes"/>
      <point x="218" y="430"/>
      <point x="208" y="443"/>
      <point x="183" y="443" type="curve" smooth="yes"/>
      <point x="135" y="443" type="line" smooth="yes"/>
      <point x="113" y="443"/>
      <point x="102" y="429"/>
      <point x="102" y="408" type="curve" smooth="yes"/>
    </contour>
  </outline>
</glyph>
<glyph name="ellipsis" format="1">
  <advance width="816"/>
  <unicode hex="2026"/>
  <note>
    GF Latin Plus glyph
  </note>
  <outline>
    <contour>
      <point x="106" y="14" type="line" smooth="yes"/>
      <point x="106" y="6"/>
      <point x="112" y="0"/>
      <point x="121" y="0" type="curve" smooth="yes"/>
      <point x="151" y="0" type="line" smooth="yes"/>
      <point x="160" y="0"/>
      <point x="166" y="4"/>
      <point x="166" y="14" type="curve" smooth="yes"/>
      <point x="166" y="87" type="line" smooth="yes"/>
      <point x="166" y="96"/>
      <point x="161" y="102"/>
      <point x="151" y="102" type="curve" smooth="yes"/>
      <point x="121" y="102" type="line" smooth="yes"/>
      <point x="111" y="102"/>
      <point x="106" y="97"/>
      <point x="106" y="87" type="curve" smooth="yes"/>
    </contour>
    <contour>
      <point x="378" y="14" type="line" smooth="yes"/>
      <point x="378" y="6"/>
      <point x="384" y="0"/>
      <point x="393" y="0" type="curve" smooth="yes"/>
      <point x="423" y="0" type="line" smooth="yes"/>
      <point x="432" y="0"/>
      <point x="438" y="4"/>
      <point x="438" y="14" type="curve" smooth="yes"/>
      <point x="438" y="87" type="line" smooth="yes"/>
      <point x="438" y="96"/>
      <point x="433" y="102"/>
      <point x="423" y="102" type="curve" smooth="yes"/>
      <point x="393" y="102" type="line" smooth="yes"/>
      <point x="383" y="102"/>
      <point x="378" y="97"/>
      <point x="378" y="87" type="curve" smooth="yes"/>
    </contour>
    <contour>
      <point x="650" y="14" type="line" smooth="yes"/>
      <point x="650" y="6"/>
      <point x="656" y="0"/>
      <point x="665" y="0" type="curve" smooth="yes"/>
      <point x="695" y="0" type="line" smooth="yes"/>
      <point x="704" y="0"/>
      <point x="710" y="4"/>
      <point x="710" y="14" type="curve" smooth="yes"/>
      <point x="710" y="87" type="line" smooth="yes"/>
      <point x="710" y="96"/>
      <point x="705" y="102"/>
      <point x="695" y="102" type="curve" smooth="yes"/>
      <point x="665" y="102" type="line" smooth="yes"/>
      <point x="655" y="102"/>
      <point x="650" y="97"/>
      <point x="650" y="87" type="curve" smooth="yes"/>
    </contour>
  </outline>
</glyph>
<glyph name="perthousand" format="1">
  <advance width="1379"/>
  <unicode hex="2030"/>
  <note>
    GF Latin Plus glyph
  </note>
  <outline>
    <contour>
      <point x="1006" y="136" type="curve" smooth="yes"/>
      <point x="1006" y="253" type="line" smooth="yes"/>
      <point x="1006" y="331"/>
      <point x="1037" y="348"/>
      <point x="1104" y="348" type="curve" smooth="yes"/>
      <point x="1195" y="348" type="line" smooth="yes"/>
      <point x="1269" y="348"/>
      <point x="1292" y="322"/>
      <point x="1292" y="253" type="curve" smooth="yes"/>
      <point x="1292" y="136" type="line" smooth="yes"/>
      <point x="1292" y="60"/>
      <point x="1262" y="41"/>
      <point x="1193" y="41" type="curve" smooth="yes"/>
      <point x="1102" y="41" type="line" smooth="yes"/>
      <point x="1033" y="41"/>
      <point x="1006" y="63"/>
    </contour>
    <contour>
      <point x="968" y="130" type="line" smooth="yes"/>
      <point x="968" y="45"/>
      <point x="999" y="3"/>
      <point x="1097" y="3" type="curve" smooth="yes"/>
      <point x="1198" y="3" type="line" smooth="yes"/>
      <point x="1299" y="3"/>
      <point x="1329" y="45"/>
      <point x="1329" y="130" type="curve" smooth="yes"/>
      <point x="1329" y="259" type="line" smooth="yes"/>
      <point x="1329" y="344"/>
      <point x="1298" y="386"/>
      <point x="1200" y="386" type="curve" smooth="yes"/>
      <point x="1099" y="386" type="line" smooth="yes"/>
      <point x="998" y="386"/>
      <point x="968" y="344"/>
      <point x="968" y="259" type="curve" smooth="yes"/>
    </contour>
    <contour>
      <point x="584" y="136" type="curve" smooth="yes"/>
      <point x="584" y="253" type="line" smooth="yes"/>
      <point x="584" y="331"/>
      <point x="615" y="348"/>
      <point x="682" y="348" type="curve" smooth="yes"/>
      <point x="773" y="348" type="line" smooth="yes"/>
      <point x="847" y="348"/>
      <point x="870" y="322"/>
      <point x="870" y="253" type="curve" smooth="yes"/>
      <point x="870" y="136" type="line" smooth="yes"/>
      <point x="870" y="60"/>
      <point x="840" y="41"/>
      <point x="771" y="41" type="curve" smooth="yes"/>
      <point x="680" y="41" type="line" smooth="yes"/>
      <point x="611" y="41"/>
      <point x="584" y="63"/>
    </contour>
    <contour>
      <point x="546" y="130" type="line" smooth="yes"/>
      <point x="546" y="45"/>
      <point x="577" y="3"/>
      <point x="675" y="3" type="curve" smooth="yes"/>
      <point x="776" y="3" type="line" smooth="yes"/>
      <point x="877" y="3"/>
      <point x="907" y="45"/>
      <point x="907" y="130" type="curve" smooth="yes"/>
      <point x="907" y="259" type="line" smooth="yes"/>
      <point x="907" y="344"/>
      <point x="876" y="386"/>
      <point x="778" y="386" type="curve" smooth="yes"/>
      <point x="677" y="386" type="line" smooth="yes"/>
      <point x="576" y="386"/>
      <point x="546" y="344"/>
      <point x="546" y="259" type="curve" smooth="yes"/>
    </contour>
    <contour>
      <point x="232" y="0" type="line"/>
      <point x="275" y="0" type="line"/>
      <point x="715" y="732" type="line"/>
      <point x="673" y="732" type="line"/>
    </contour>
    <contour>
      <point x="88" y="482" type="curve" smooth="yes"/>
      <point x="88" y="599" type="line" smooth="yes"/>
      <point x="88" y="677"/>
      <point x="119" y="694"/>
      <point x="186" y="694" type="curve" smooth="yes"/>
      <point x="277" y="694" type="line" smooth="yes"/>
      <point x="351" y="694"/>
      <point x="374" y="668"/>
      <point x="374" y="599" type="curve" smooth="yes"/>
      <point x="374" y="482" type="line" smooth="yes"/>
      <point x="374" y="406"/>
      <point x="344" y="387"/>
      <point x="275" y="387" type="curve" smooth="yes"/>
      <point x="184" y="387" type="line" smooth="yes"/>
      <point x="115" y="387"/>
      <point x="88" y="409"/>
    </contour>
    <contour>
      <point x="50" y="476" type="line" smooth="yes"/>
      <point x="50" y="391"/>
      <point x="81" y="349"/>
      <point x="179" y="349" type="curve" smooth="yes"/>
      <point x="280" y="349" type="line" smooth="yes"/>
      <point x="381" y="349"/>
      <point x="411" y="391"/>
      <point x="411" y="476" type="curve" smooth="yes"/>
      <point x="411" y="605" type="line" smooth="yes"/>
      <point x="411" y="690"/>
      <point x="380" y="732"/>
      <point x="282" y="732" type="curve" smooth="yes"/>
      <point x="181" y="732" type="line" smooth="yes"/>
      <point x="80" y="732"/>
      <point x="50" y="690"/>
      <point x="50" y="605" type="curve" smooth="yes"/>
    </contour>
  </outline>
</glyph>
<glyph name="guilsinglright" format="1">
  <advance width="358"/>
  <unicode hex="203A"/>
  <note>
    GF Latin Plus glyph
  </note>
  <outline>
    <contour>
      <point x="299" y="275" type="line"/>
      <point x="86" y="486" type="line"/>
      <point x="52" y="454" type="line"/>
      <point x="235" y="275" type="line"/>
      <point x="57" y="100" type="line"/>
      <point x="88" y="67" type="line"/>
    </contour>
  </outline>
</glyph>
<glyph name="peseta" format="1">
  <advance width="609"/>
  <unicode hex="20A7"/>
  <note>
    GF Latin Plus glyph
  </note>
  <outline>
    <contour>
      <point x="155" y="261" type="line"/>
      <point x="155" y="682" type="line"/>
      <point x="339" y="682" type="line" smooth="yes"/>
      <point x="406" y="682"/>
      <point x="469" y="642"/>
      <point x="469" y="475" type="curve" smooth="yes"/>
      <point x="469" y="307"/>
      <point x="405" y="261"/>
      <point x="331" y="261" type="curve" smooth="yes"/>
    </contour>
    <contour>
      <point x="97" y="0" type="line"/>
      <point x="155" y="0" type="line"/>
      <point x="155" y="218" type="line"/>
      <point x="191" y="215"/>
      <point x="303" y="209"/>
      <point x="338" y="209" type="curve" smooth="yes"/>
      <point x="418" y="209"/>
      <point x="527" y="250"/>
      <point x="527" y="475" type="curve" smooth="yes"/>
      <point x="527" y="697"/>
      <point x="426" y="734"/>
      <point x="343" y="734" type="curve" smooth="yes"/>
      <point x="97" y="734" type="line"/>
    </contour>
    <contour>
      <point x="135" y="449" type="line"/>
      <point x="599" y="449" type="line"/>
      <point x="599" y="486" type="line"/>
      <point x="135" y="486" type="line"/>
    </contour>
    <contour>
      <point x="18" y="449" type="line"/>
      <point x="130" y="449" type="line"/>
      <point x="130" y="486" type="line"/>
      <point x="18" y="486" type="line"/>
    </contour>
  </outline>
</glyph>
<glyph name="euro" format="1">
  <advance width="609"/>
  <unicode hex="20AC"/>
  <note>
    GF Latin Plus glyph
  </note>
  <outline>
    <contour>
      <point x="24" y="423" type="line"/>
      <point x="101" y="419" type="line"/>
      <point x="144" y="419" type="line"/>
      <point x="439" y="423" type="line"/>
      <point x="439" y="453" type="line"/>
      <point x="144" y="457" type="line"/>
      <point x="103" y="457" type="line"/>
      <point x="24" y="452" type="line"/>
    </contour>
    <contour>
      <point x="24" y="266" type="line"/>
      <point x="103" y="261" type="line"/>
      <point x="144" y="261" type="line"/>
      <point x="439" y="265" type="line"/>
      <point x="439" y="295" type="line"/>
      <point x="144" y="299" type="line"/>
      <point x="101" y="299" type="line"/>
      <point x="24" y="296" type="line"/>
    </contour>
    <component base="C" xOffset="32"/>
  </outline>
</glyph>
<glyph name="peso" format="1">
  <advance width="609"/>
  <unicode hex="20B1"/>
  <note>
    GF Latin Plus glyph
  </note>
  <outline>
    <contour>
      <point x="489" y="547" type="line"/>
      <point x="599" y="547" type="line"/>
      <point x="599" y="583" type="line"/>
      <point x="489" y="583" type="line"/>
    </contour>
    <contour>
      <point x="10" y="547" type="line"/>
      <point x="151" y="547" type="line"/>
      <point x="151" y="583" type="line"/>
      <point x="10" y="583" type="line"/>
    </contour>
    <contour>
      <point x="467" y="378" type="line"/>
      <point x="599" y="378" type="line"/>
      <point x="599" y="414" type="line"/>
      <point x="481" y="414" type="line"/>
    </contour>
    <contour>
      <point x="10" y="378" type="line"/>
      <point x="155" y="378" type="line"/>
      <point x="155" y="414" type="line"/>
      <point x="10" y="414" type="line"/>
    </contour>
    <contour>
      <point x="179" y="321" type="line"/>
      <point x="179" y="682" type="line"/>
      <point x="329" y="682" type="line" smooth="yes"/>
      <point x="398" y="682"/>
      <point x="461" y="648"/>
      <point x="461" y="505" type="curve" smooth="yes"/>
      <point x="461" y="360"/>
      <point x="397" y="321"/>
      <point x="321" y="321" type="curve" smooth="yes"/>
    </contour>
    <contour>
      <point x="125" y="0" type="line"/>
      <point x="179" y="0" type="line"/>
      <point x="179" y="278" type="line"/>
      <point x="219" y="275"/>
      <point x="291" y="269"/>
      <point x="328" y="269" type="curve" smooth="yes"/>
      <point x="407" y="269"/>
      <point x="515" y="306"/>
      <point x="515" y="505" type="curve" smooth="yes"/>
      <point x="515" y="701"/>
      <point x="415" y="734"/>
      <point x="333" y="734" type="curve" smooth="yes"/>
      <point x="125" y="734" type="line"/>
    </contour>
  </outline>
</glyph>
<glyph name="guarani" format="1">
  <advance width="609"/>
  <unicode hex="20B2"/>
  <note>
    GF Latin Plus glyph
  </note>
  <outline>
    <contour>
      <point x="355" y="-104" type="line"/>
      <point x="355" y="793" type="line"/>
      <point x="319" y="793" type="line"/>
      <point x="319" y="-104" type="line"/>
    </contour>
    <contour>
      <point x="59" y="362" type="curve" smooth="yes"/>
      <point x="59" y="100"/>
      <point x="110" y="-7"/>
      <point x="298" y="-5" type="curve" smooth="yes"/>
      <point x="381" y="-4"/>
      <point x="463" y="27"/>
      <point x="513" y="52" type="curve"/>
      <point x="523" y="0" type="line"/>
      <point x="561" y="0" type="line"/>
      <point x="561" y="379" type="line"/>
      <point x="507" y="379" type="line"/>
      <point x="507" y="92" type="line"/>
      <point x="455" y="71"/>
      <point x="378" y="48"/>
      <point x="311" y="48" type="curve" smooth="yes"/>
      <point x="155" y="48"/>
      <point x="113" y="120"/>
      <point x="113" y="360" type="curve" smooth="yes"/>
      <point x="113" y="583"/>
      <point x="158" y="672"/>
      <point x="324" y="672" type="curve" smooth="yes"/>
      <point x="412" y="672"/>
      <point x="511" y="663"/>
      <point x="550" y="658" type="curve"/>
      <point x="550" y="701" type="line"/>
      <point x="484" y="714"/>
      <point x="387" y="724"/>
      <point x="317" y="724" type="curve" smooth="yes"/>
      <point x="117" y="724"/>
      <point x="59" y="609"/>
    </contour>
  </outline>
</glyph>
<glyph name="cedi" format="1">
  <advance width="609"/>
  <unicode hex="20B5"/>
  <note>
    GF Latin Plus glyph
  </note>
  <outline>
    <contour>
      <point x="374" y="-104" type="line"/>
      <point x="374" y="793" type="line"/>
      <point x="338" y="793" type="line"/>
      <point x="338" y="-104" type="line"/>
    </contour>
    <contour>
      <point x="70" y="364" type="curve" smooth="yes"/>
      <point x="70" y="62"/>
      <point x="159" y="-6"/>
      <point x="337" y="-6" type="curve" smooth="yes"/>
      <point x="431" y="-6"/>
      <point x="510" y="8"/>
      <point x="555" y="26" type="curve"/>
      <point x="555" y="67" type="line"/>
      <point x="487" y="50"/>
      <point x="438" y="44"/>
      <point x="350" y="44" type="curve" smooth="yes"/>
      <point x="183" y="44"/>
      <point x="124" y="103"/>
      <point x="124" y="362" type="curve" smooth="yes"/>
      <point x="124" y="641"/>
      <point x="210" y="680"/>
      <point x="366" y="680" type="curve" smooth="yes"/>
      <point x="434" y="680"/>
      <point x="502" y="668"/>
      <point x="555" y="657" type="curve"/>
      <point x="555" y="698" type="line"/>
      <point x="521" y="712"/>
      <point x="438" y="732"/>
      <point x="354" y="732" type="curve" smooth="yes"/>
      <point x="186" y="732"/>
      <point x="70" y="672"/>
    </contour>
  </outline>
</glyph>
<glyph name="manat" format="1">
  <advance width="609"/>
  <unicode hex="20BC"/>
  <note>
    GF Latin Plus glyph
  </note>
  <outline>
    <contour>
      <point x="322" y="80" type="line"/>
      <point x="322" y="785" type="line"/>
      <point x="287" y="785" type="line"/>
      <point x="287" y="80" type="line"/>
    </contour>
    <contour>
      <point x="304" y="679" type="curve" smooth="yes"/>
      <point x="94" y="679"/>
      <point x="56" y="390"/>
      <point x="47" y="0" type="curve"/>
      <point x="101" y="0" type="line"/>
      <point x="111" y="221" type="line" smooth="yes"/>
      <point x="120" y="405"/>
      <point x="153" y="627"/>
      <point x="304" y="627" type="curve" smooth="yes"/>
      <point x="455" y="627"/>
      <point x="489" y="404"/>
      <point x="498" y="221" type="curve" smooth="yes"/>
      <point x="508" y="0" type="line"/>
      <point x="562" y="0" type="line"/>
      <point x="553" y="390"/>
      <point x="514" y="679"/>
    </contour>
  </outline>
</glyph>
<glyph name="ruble" format="1">
  <advance width="609"/>
  <unicode hex="20BD"/>
  <note>
    GF Latin Plus glyph
  </note>
  <outline>
    <contour>
      <point x="158" y="124" type="line"/>
      <point x="481" y="124" type="line"/>
      <point x="481" y="160" type="line"/>
      <point x="160" y="160" type="line"/>
    </contour>
    <contour>
      <point x="18" y="124" type="line"/>
      <point x="153" y="124" type="line"/>
      <point x="153" y="160" type="line"/>
      <point x="18" y="160" type="line"/>
    </contour>
    <contour>
      <point x="180" y="336" type="line"/>
      <point x="180" y="682" type="line"/>
      <point x="329" y="682" type="line" smooth="yes"/>
      <point x="440" y="682"/>
      <point x="485" y="639"/>
      <point x="485" y="511" type="curve" smooth="yes"/>
      <point x="485" y="395"/>
      <point x="443" y="336"/>
      <point x="329" y="336" type="curve" smooth="yes"/>
    </contour>
    <contour>
      <point x="124" y="0" type="line"/>
      <point x="180" y="0" type="line"/>
      <point x="180" y="288" type="line"/>
      <point x="184" y="287"/>
      <point x="330" y="285"/>
      <point x="336" y="285" type="curve" smooth="yes"/>
      <point x="464" y="285"/>
      <point x="541" y="355"/>
      <point x="541" y="511" type="curve" smooth="yes"/>
      <point x="541" y="688"/>
      <point x="453" y="734"/>
      <point x="349" y="734" type="curve" smooth="yes"/>
      <point x="124" y="734" type="line"/>
    </contour>
    <contour>
      <point x="18" y="300" type="line"/>
      <point x="148" y="300" type="line"/>
      <point x="148" y="336" type="line"/>
      <point x="18" y="336" type="line"/>
    </contour>
  </outline>
</glyph>
<glyph name="trademark" format="1">
  <advance width="706"/>
  <unicode hex="2122"/>
  <note>
    GF Latin Plus glyph
  </note>
  <outline>
    <contour>
      <point x="322" y="383" type="line"/>
      <point x="355" y="383" type="line"/>
      <point x="378" y="671" type="line"/>
      <point x="496" y="383" type="line"/>
      <point x="521" y="383" type="line"/>
      <point x="630" y="671" type="line"/>
      <point x="656" y="383" type="line"/>
      <point x="689" y="383" type="line"/>
      <point x="654" y="732" type="line"/>
      <point x="620" y="732" type="line"/>
      <point x="509" y="435" type="line"/>
      <point x="386" y="732" type="line"/>
      <point x="353" y="732" type="line"/>
    </contour>
    <contour>
      <point x="24" y="702" type="line"/>
      <point x="141" y="702" type="line"/>
      <point x="141" y="383" type="line"/>
      <point x="175" y="383" type="line"/>
      <point x="175" y="702" type="line"/>
      <point x="291" y="702" type="line"/>
      <point x="291" y="732" type="line"/>
      <point x="24" y="732" type="line"/>
    </contour>
  </outline>
</glyph>
<glyph name="increment" format="1">
  <advance width="706"/>
  <unicode hex="2206"/>
  <outline>
    <contour>
      <point x="114" y="52" type="line"/>
      <point x="335" y="673" type="line"/>
      <point x="555" y="52" type="line"/>
    </contour>
    <contour>
      <point x="39" y="0" type="line"/>
      <point x="632" y="0" type="line"/>
      <point x="371" y="734" type="line"/>
      <point x="300" y="734" type="line"/>
    </contour>
  </outline>
</glyph>
<glyph name="summation" format="1">
  <advance width="565"/>
  <unicode hex="2211"/>
  <outline>
    <contour>
      <point x="48" y="-143" type="line"/>
      <point x="48" y="-200" type="line"/>
      <point x="542" y="-200" type="line"/>
      <point x="542" y="-145" type="line"/>
      <point x="116" y="-145" type="line"/>
      <point x="330" y="271" type="line"/>
      <point x="117" y="680" type="line"/>
      <point x="542" y="680" type="line"/>
      <point x="542" y="734" type="line"/>
      <point x="48" y="734" type="line"/>
      <point x="48" y="680" type="line"/>
      <point x="262" y="271" type="line"/>
    </contour>
  </outline>
</glyph>
<glyph name="bulletoperator" format="1">
  <advance width="609"/>
  <unicode hex="2219"/>
  <note>
    GF Latin Plus glyph
  </note>
  <outline>
    <contour>
      <point x="264" y="335" type="line" smooth="yes"/>
      <point x="264" y="321"/>
      <point x="274" y="312"/>
      <point x="288" y="312" type="curve" smooth="yes"/>
      <point x="320" y="312" type="line" smooth="yes"/>
      <point x="334" y="312"/>
      <point x="345" y="317"/>
      <point x="345" y="335" type="curve" smooth="yes"/>
      <point x="345" y="375" type="line" smooth="yes"/>
      <point x="345" y="391"/>
      <point x="338" y="400"/>
      <point x="320" y="400" type="curve" smooth="yes"/>
      <point x="288" y="400" type="line" smooth="yes"/>
      <point x="272" y="400"/>
      <point x="264" y="390"/>
      <point x="264" y="375" type="curve" smooth="yes"/>
    </contour>
  </outline>
</glyph>
<glyph name="radical" format="1">
  <advance width="611"/>
  <unicode hex="221A"/>
  <outline>
    <contour>
      <point x="24" y="308" type="line"/>
      <point x="105" y="308" type="line"/>
      <point x="243" y="0" type="line"/>
      <point x="296" y="0" type="line"/>
      <point x="587" y="800" type="line"/>
      <point x="525" y="800" type="line"/>
      <point x="265" y="85" type="line"/>
      <point x="144" y="362" type="line"/>
      <point x="24" y="362" type="line"/>
    </contour>
  </outline>
</glyph>
<glyph name="infinity" format="1">
  <advance width="805"/>
  <unicode hex="221E"/>
  <outline>
    <contour>
      <point x="429" y="342" type="curve"/>
      <point x="465" y="399"/>
      <point x="538" y="470"/>
      <point x="600" y="470" type="curve" smooth="yes"/>
      <point x="686" y="470"/>
      <point x="700" y="418"/>
      <point x="700" y="341" type="curve" smooth="yes"/>
      <point x="700" y="267"/>
      <point x="683" y="213"/>
      <point x="593" y="213" type="curve" smooth="yes"/>
      <point x="528" y="213"/>
      <point x="467" y="277"/>
    </contour>
    <contour>
      <point x="106" y="341" type="curve" smooth="yes"/>
      <point x="106" y="434"/>
      <point x="127" y="470"/>
      <point x="209" y="470" type="curve" smooth="yes"/>
      <point x="265" y="470"/>
      <point x="333" y="404"/>
      <point x="374" y="343" type="curve"/>
      <point x="349" y="299"/>
      <point x="289" y="213"/>
      <point x="207" y="213" type="curve" smooth="yes"/>
      <point x="132" y="213"/>
      <point x="106" y="254"/>
    </contour>
    <contour>
      <point x="60" y="341" type="curve" smooth="yes"/>
      <point x="60" y="249"/>
      <point x="83" y="169"/>
      <point x="205" y="169" type="curve" smooth="yes"/>
      <point x="297" y="169"/>
      <point x="363" y="237"/>
      <point x="401" y="309" type="curve"/>
      <point x="440" y="245"/>
      <point x="511" y="169"/>
      <point x="596" y="169" type="curve" smooth="yes"/>
      <point x="723" y="169"/>
      <point x="746" y="249"/>
      <point x="746" y="341" type="curve" smooth="yes"/>
      <point x="746" y="420"/>
      <point x="734" y="514"/>
      <point x="607" y="514" type="curve" smooth="yes"/>
      <point x="520" y="514"/>
      <point x="436" y="434"/>
      <point x="401" y="377" type="curve"/>
      <point x="362" y="435"/>
      <point x="286" y="514"/>
      <point x="206" y="514" type="curve" smooth="yes"/>
      <point x="72" y="514"/>
      <point x="60" y="428"/>
    </contour>
  </outline>
</glyph>
<glyph name="integral" format="1">
  <advance width="453"/>
  <unicode hex="222B"/>
  <outline>
    <contour>
      <point x="24" y="-156" type="line"/>
      <point x="24" y="-193" type="line"/>
      <point x="42" y="-198"/>
      <point x="81" y="-202"/>
      <point x="116" y="-202" type="curve" smooth="yes"/>
      <point x="210" y="-202"/>
      <point x="255" y="-131"/>
      <point x="255" y="-15" type="curve" smooth="yes"/>
      <point x="255" y="621" type="line" smooth="yes"/>
      <point x="255" y="699"/>
      <point x="275" y="752"/>
      <point x="351" y="752" type="curve" smooth="yes"/>
      <point x="429" y="752" type="line"/>
      <point x="429" y="789" type="line"/>
      <point x="413" y="791"/>
      <point x="392" y="798"/>
      <point x="334" y="798" type="curve" smooth="yes"/>
      <point x="237" y="798"/>
      <point x="197" y="732"/>
      <point x="197" y="623" type="curve" smooth="yes"/>
      <point x="197" y="-18" type="line" smooth="yes"/>
      <point x="197" y="-120"/>
      <point x="151" y="-156"/>
      <point x="101" y="-156" type="curve" smooth="yes"/>
    </contour>
  </outline>
</glyph>
<glyph name="greaterequal" format="1">
  <advance width="609"/>
  <unicode hex="2265"/>
  <note>
    GF Latin Plus glyph
  </note>
  <outline>
    <contour>
      <point x="98" y="246" type="line"/>
      <point x="513" y="378" type="line"/>
      <point x="513" y="431" type="line"/>
      <point x="98" y="562" type="line"/>
      <point x="98" y="512" type="line"/>
      <point x="459" y="404" type="line"/>
      <point x="98" y="296" type="line"/>
    </contour>
    <component base="minus" yOffset="-250"/>
  </outline>
</glyph>
<glyph name="lozenge" format="1">
  <advance width="530"/>
  <unicode hex="25CA"/>
  <outline>
    <contour>
      <point x="81" y="373" type="line"/>
      <point x="268" y="667" type="line"/>
      <point x="449" y="373" type="line"/>
      <point x="268" y="70" type="line"/>
    </contour>
    <contour>
      <point x="24" y="373" type="line"/>
      <point x="251" y="0" type="line"/>
      <point x="285" y="0" type="line"/>
      <point x="506" y="373" type="line"/>
      <point x="285" y="732" type="line"/>
      <point x="251" y="732" type="line"/>
    </contour>
  </outline>
</glyph>
<glyph name="fi" format="1">
  <advance width="601"/>
  <unicode hex="FB01"/>
  <note>
    GF Latin Plus glyph
  </note>
  <outline>
    <contour>
      <point x="23" y="484" type="line"/>
      <point x="107" y="484" type="line"/>
      <point x="107" y="0" type="line"/>
      <point x="165" y="0" type="line"/>
      <point x="165" y="484" type="line"/>
      <point x="490" y="484" type="line"/>
      <point x="490" y="533" type="line"/>
      <point x="165" y="533" type="line"/>
      <point x="165" y="602" type="line" smooth="yes"/>
      <point x="165" y="679"/>
      <point x="181" y="720"/>
      <point x="263" y="720" type="curve" smooth="yes"/>
      <point x="292" y="720"/>
      <point x="325" y="717"/>
      <point x="354" y="714" type="curve"/>
      <point x="354" y="755" type="line"/>
      <point x="327" y="763"/>
      <point x="296" y="769"/>
      <point x="248" y="769" type="curve" smooth="yes"/>
      <point x="138" y="769"/>
      <point x="107" y="712"/>
      <point x="107" y="608" type="curve" smooth="yes"/>
      <point x="107" y="533" type="line"/>
      <point x="23" y="522" type="line"/>
    </contour>
    <component base="i" xOffset="380"/>
  </outline>
</glyph>
<glyph name="f_f_i" format="1">
  <advance width="981"/>
  <unicode hex="FB03"/>
  <note>
    GF Latin Plus glyph
  </note>
  <outline>
    <contour>
      <point x="23" y="484" type="line"/>
      <point x="107" y="484" type="line"/>
      <point x="107" y="0" type="line"/>
      <point x="165" y="0" type="line"/>
      <point x="165" y="484" type="line"/>
      <point x="514" y="484" type="line"/>
      <point x="514" y="533" type="line"/>
      <point x="165" y="533" type="line"/>
      <point x="165" y="602" type="line" smooth="yes"/>
      <point x="165" y="679"/>
      <point x="181" y="720"/>
      <point x="263" y="720" type="curve" smooth="yes"/>
      <point x="292" y="720"/>
      <point x="325" y="717"/>
      <point x="354" y="714" type="curve"/>
      <point x="354" y="755" type="line"/>
      <point x="327" y="763"/>
      <point x="296" y="769"/>
      <point x="248" y="769" type="curve" smooth="yes"/>
      <point x="138" y="769"/>
      <point x="107" y="712"/>
      <point x="107" y="608" type="curve" smooth="yes"/>
      <point x="107" y="533" type="line"/>
      <point x="23" y="522" type="line"/>
    </contour>
    <component base="fi" xOffset="380"/>
  </outline>
</glyph>
<glyph name="s_t" format="1">
  <advance width="855"/>
  <unicode hex="FB06"/>
  <outline>
    <contour>
      <point x="445" y="127" type="curve" smooth="yes"/>
      <point x="445" y="161" type="line" smooth="yes"/>
      <point x="445" y="245"/>
      <point x="387" y="290"/>
      <point x="293" y="290" type="curve" smooth="yes"/>
      <point x="220" y="290" type="line" smooth="yes"/>
      <point x="151" y="290"/>
      <point x="105" y="301"/>
      <point x="105" y="372" type="curve" smooth="yes"/>
      <point x="105" y="395" type="line" smooth="yes"/>
      <point x="105" y="469"/>
      <point x="153" y="490"/>
      <point x="241" y="490" type="curve" smooth="yes"/>
      <point x="601" y="490" type="line"/>
      <point x="598" y="167" type="line" smooth="yes"/>
      <point x="596" y="47"/>
      <point x="646" y="0"/>
      <point x="743" y="0" type="curve" smooth="yes"/>
      <point x="809" y="0" type="line"/>
      <point x="809" y="42" type="line"/>
      <point x="744" y="48" type="line" smooth="yes"/>
      <point x="708" y="52"/>
      <point x="655" y="65"/>
      <point x="655" y="167" type="curve" smooth="yes"/>
      <point x="655" y="484" type="line"/>
      <point x="817" y="484" type="line"/>
      <point x="817" y="533" type="line"/>
      <point x="655" y="533" type="line"/>
      <point x="655" y="682" type="line"/>
      <point x="612" y="682" type="line"/>
      <point x="602" y="530" type="line"/>
      <point x="532" y="533"/>
      <point x="356" y="538"/>
      <point x="259" y="538" type="curve" smooth="yes"/>
      <point x="117" y="538"/>
      <point x="53" y="495"/>
      <point x="53" y="397" type="curve" smooth="yes"/>
      <point x="53" y="368" type="line" smooth="yes"/>
      <point x="53" y="270"/>
      <point x="116" y="240"/>
      <point x="213" y="240" type="curve" smooth="yes"/>
      <point x="285" y="240" type="line" smooth="yes"/>
      <point x="359" y="240"/>
      <point x="393" y="209"/>
      <point x="393" y="156" type="curve" smooth="yes"/>
      <point x="393" y="130" type="line" smooth="yes"/>
      <point x="393" y="51"/>
      <point x="342" y="40"/>
      <point x="270" y="40" type="curve" smooth="yes"/>
      <point x="57" y="40" type="line"/>
      <point x="57" y="5" type="line"/>
      <point x="90" y="-1"/>
      <point x="214" y="-6"/>
      <point x="262" y="-6" type="curve" smooth="yes"/>
      <point x="367" y="-6"/>
      <point x="445" y="20"/>
    </contour>
  </outline>
</glyph>
<glyph name="AE.smcp" format="1">
  <advance width="800"/>
  <outline>
    <contour>
      <point x="230" y="209" type="line"/>
      <point x="401" y="475" type="line"/>
      <point x="401" y="209" type="line"/>
    </contour>
    <contour>
      <point x="42" y="0" type="line"/>
      <point x="97" y="0" type="line"/>
      <point x="207" y="165" type="line"/>
      <point x="403" y="165" type="line"/>
      <point x="401" y="90" type="line" smooth="yes"/>
      <point x="404" y="19"/>
      <point x="448" y="-4"/>
      <point x="524" y="-3" type="curve" smooth="yes"/>
      <point x="549" y="-3"/>
      <point x="723" y="2"/>
      <point x="740" y="5" type="curve"/>
      <point x="740" y="44" type="line"/>
      <point x="532" y="44" type="line" smooth="yes"/>
      <point x="480" y="44"/>
      <point x="453" y="64"/>
      <point x="453" y="113" type="curve" smooth="yes"/>
      <point x="453" y="255" type="line"/>
      <point x="706" y="259" type="line"/>
      <point x="706" y="298" type="line"/>
      <point x="453" y="301" type="line"/>
      <point x="453" y="462" type="line" smooth="yes"/>
      <point x="453" y="497"/>
      <point x="468" y="513"/>
      <point x="512" y="513" type="curve" smooth="yes"/>
      <point x="740" y="513" type="line"/>
      <point x="740" y="553" type="line"/>
      <point x="726" y="555"/>
      <point x="534" y="560"/>
      <point x="507" y="560" type="curve" smooth="yes"/>
      <point x="422" y="561"/>
      <point x="378" y="534"/>
      <point x="340" y="471" type="curve" smooth="yes"/>
    </contour>
    <contour>
      <point x="440" y="658" type="move" name="top"/>
    </contour>
  </outline>
</glyph>
<glyph name="Lslash.smcp" format="1">
  <advance width="453"/>
  <outline>
    <contour>
      <point x="14" y="241" type="line"/>
      <point x="84" y="268" type="line"/>
      <point x="126" y="280" type="line"/>
      <point x="243" y="328" type="line"/>
      <point x="243" y="359" type="line"/>
      <point x="126" y="311" type="line"/>
      <point x="84" y="301" type="line"/>
      <point x="14" y="273" type="line"/>
    </contour>
    <component base="L.smcp"/>
  </outline>
</glyph>
<glyph name="N.salt" format="1">
  <advance width="718"/>
  <outline>
    <contour>
      <point x="97" y="0" type="line"/>
      <point x="155" y="0" type="line"/>
      <point x="155" y="628" type="line" smooth="yes"/>
      <point x="155" y="672"/>
      <point x="175" y="685"/>
      <point x="203" y="685" type="curve" smooth="yes"/>
      <point x="225" y="685"/>
      <point x="240" y="670"/>
      <point x="248" y="647" type="curve" smooth="yes"/>
      <point x="450" y="71" type="line" smooth="yes"/>
      <point x="468" y="19"/>
      <point x="497" y="-6"/>
      <point x="551" y="-6" type="curve" smooth="yes"/>
      <point x="608" y="-6"/>
      <point x="653" y="19"/>
      <point x="653" y="98" type="curve" smooth="yes"/>
      <point x="653" y="734" type="line"/>
      <point x="595" y="734" type="line"/>
      <point x="595" y="102" type="line" smooth="yes"/>
      <point x="595" y="61"/>
      <point x="573" y="50"/>
      <point x="549" y="50" type="curve" smooth="yes"/>
      <point x="522" y="50"/>
      <point x="508" y="62"/>
      <point x="500" y="87" type="curve" smooth="yes"/>
      <point x="299" y="661" type="line" smooth="yes"/>
      <point x="282" y="711"/>
      <point x="255" y="741"/>
      <point x="199" y="741" type="curve" smooth="yes"/>
      <point x="143" y="741"/>
      <point x="97" y="716"/>
      <point x="97" y="633" type="curve" smooth="yes"/>
    </contour>
    <contour>
      <point x="376" y="810" type="move" name="top"/>
    </contour>
    <contour>
      <point x="372" y="-150" type="move" name="bottom"/>
    </contour>
  </outline>
</glyph>
<glyph name="Omega" format="1">
  <advance width="785"/>
  <outline>
    <contour>
      <point x="75" y="392" type="curve" smooth="yes"/>
      <point x="75" y="278"/>
      <point x="117" y="156"/>
      <point x="252" y="53" type="curve"/>
      <point x="62" y="44" type="line"/>
      <point x="62" y="0" type="line"/>
      <point x="317" y="0" type="line"/>
      <point x="317" y="51" type="line"/>
      <point x="186" y="157"/>
      <point x="133" y="245"/>
      <point x="133" y="386" type="curve" smooth="yes"/>
      <point x="133" y="566"/>
      <point x="208" y="687"/>
      <point x="392" y="687" type="curve" smooth="yes"/>
      <point x="578" y="687"/>
      <point x="650" y="562"/>
      <point x="650" y="381" type="curve" smooth="yes"/>
      <point x="650" y="264"/>
      <point x="597" y="141"/>
      <point x="469" y="51" type="curve"/>
      <point x="469" y="0" type="line"/>
      <point x="723" y="0" type="line"/>
      <point x="723" y="44" type="line"/>
      <point x="534" y="52" type="line"/>
      <point x="652" y="140"/>
      <point x="708" y="270"/>
      <point x="708" y="388" type="curve" smooth="yes"/>
      <point x="708" y="593"/>
      <point x="622" y="739"/>
      <point x="392" y="739" type="curve" smooth="yes"/>
      <point x="153" y="739"/>
      <point x="75" y="570"/>
    </contour>
  </outline>
</glyph>
<glyph name="R.smcp" format="1">
  <advance width="526"/>
  <outline>
    <contour>
      <point x="76" y="0" type="line"/>
      <point x="132" y="0" type="line"/>
      <point x="132" y="224" type="line"/>
      <point x="184" y="221"/>
      <point x="253" y="220"/>
      <point x="296" y="219" type="curve"/>
      <point x="435" y="0" type="line"/>
      <point x="489" y="0" type="line"/>
      <point x="347" y="229" type="line"/>
      <point x="405" y="238"/>
      <point x="470" y="274"/>
      <point x="470" y="386" type="curve" smooth="yes"/>
      <point x="470" y="512"/>
      <point x="399" y="560"/>
      <point x="312" y="560" type="curve" smooth="yes"/>
      <point x="76" y="560" type="line"/>
    </contour>
    <contour>
      <point x="132" y="264" type="line"/>
      <point x="132" y="514" type="line"/>
      <point x="307" y="514" type="line" smooth="yes"/>
      <point x="374" y="514"/>
      <point x="414" y="469"/>
      <point x="414" y="384" type="curve" smooth="yes"/>
      <point x="414" y="295"/>
      <point x="368" y="264"/>
      <point x="299" y="264" type="curve" smooth="yes"/>
    </contour>
    <contour>
      <point x="244" y="650" type="move" name="top"/>
    </contour>
    <contour>
      <point x="244" y="-150" type="move" name="bottom"/>
    </contour>
  </outline>
</glyph>
<glyph name="X.smcp" format="1">
  <advance width="523"/>
  <outline>
    <contour>
      <point x="45" y="0" type="line"/>
      <point x="107" y="0" type="line"/>
      <point x="266" y="246" type="line"/>
      <point x="238" y="291" type="line"/>
    </contour>
    <contour>
      <point x="259" y="310" type="line"/>
      <point x="285" y="261" type="line"/>
      <point x="480" y="560" type="line"/>
      <point x="418" y="560" type="line"/>
    </contour>
    <contour>
      <point x="42" y="560" type="line"/>
      <point x="417" y="0" type="line"/>
      <point x="479" y="0" type="line"/>
      <point x="104" y="560" type="line"/>
    </contour>
    <contour>
      <point x="260" y="650" type="move" name="top"/>
    </contour>
    <contour>
      <point x="260" y="-150" type="move" name="bottom"/>
    </contour>
  </outline>
</glyph>
<glyph name="a.salt" format="1">
  <advance width="527"/>
  <outline>
    <contour>
      <point x="106" y="137" type="curve" smooth="yes"/>
      <point x="106" y="162" type="line" smooth="yes"/>
      <point x="106" y="220"/>
      <point x="138" y="263"/>
      <point x="221" y="266" type="curve" smooth="yes"/>
      <point x="407" y="273" type="line"/>
      <point x="407" y="92" type="line"/>
      <point x="346" y="56"/>
      <point x="271" y="38"/>
      <point x="203" y="40" type="curve" smooth="yes"/>
      <point x="158" y="40"/>
      <point x="106" y="64"/>
    </contour>
    <contour>
      <point x="48" y="127" type="line" smooth="yes"/>
      <point x="48" y="42"/>
      <point x="106" y="-6"/>
      <point x="193" y="-6" type="curve" smooth="yes"/>
      <point x="215" y="-6" type="line" smooth="yes"/>
      <point x="299" y="-6"/>
      <point x="403" y="30"/>
      <point x="465" y="70" type="curve"/>
      <point x="465" y="381" type="line" smooth="yes"/>
      <point x="465" y="491"/>
      <point x="408" y="543"/>
      <point x="278" y="542" type="curve" smooth="yes"/>
      <point x="199" y="541"/>
      <point x="140" y="535"/>
      <point x="95" y="529" type="curve"/>
      <point x="95" y="494" type="line"/>
      <point x="262" y="494" type="line" smooth="yes"/>
      <point x="378" y="494"/>
      <point x="407" y="449"/>
      <point x="407" y="378" type="curve" smooth="yes"/>
      <point x="407" y="304" type="line"/>
      <point x="212" y="304" type="line" smooth="yes"/>
      <point x="104" y="304"/>
      <point x="48" y="247"/>
      <point x="48" y="163" type="curve" smooth="yes"/>
    </contour>
    <contour>
      <point x="278" y="650" type="move" name="top"/>
    </contour>
    <contour>
      <point x="269" y="0" type="move" name="ogonek"/>
    </contour>
    <contour>
      <point x="270" y="-150" type="move" name="bottom"/>
    </contour>
  </outline>
</glyph>
<glyph name="ampersand.salt" format="1">
  <advance width="952"/>
  <outline>
    <contour>
      <point x="285" y="219" type="line"/>
      <point x="285" y="333"/>
      <point x="329" y="366"/>
      <point x="392" y="366" type="curve" smooth="yes"/>
      <point x="481" y="366" type="line" smooth="yes"/>
      <point x="542" y="366"/>
      <point x="571" y="356"/>
      <point x="571" y="294" type="curve" smooth="yes"/>
      <point x="571" y="232"/>
      <point x="548" y="219"/>
      <point x="481" y="219" type="curve" smooth="yes"/>
    </contour>
    <contour>
      <point x="105" y="316" type="curve" smooth="yes"/>
      <point x="105" y="386" type="line" smooth="yes"/>
      <point x="105" y="493"/>
      <point x="161" y="509"/>
      <point x="273" y="509" type="curve" smooth="yes"/>
      <point x="732" y="509" type="line"/>
      <point x="732" y="199" type="line" smooth="yes"/>
      <point x="732" y="74"/>
      <point x="636" y="47"/>
      <point x="543" y="47" type="curve" smooth="yes"/>
      <point x="426" y="47" type="line" smooth="yes"/>
      <point x="332" y="47"/>
      <point x="285" y="70"/>
      <point x="285" y="177" type="curve"/>
      <point x="492" y="177" type="line" smooth="yes"/>
      <point x="574" y="177"/>
      <point x="623" y="200"/>
      <point x="623" y="290" type="curve" smooth="yes"/>
      <point x="623" y="381"/>
      <point x="570" y="408"/>
      <point x="480" y="408" type="curve" smooth="yes"/>
      <point x="387" y="408" type="line" smooth="yes"/>
      <point x="273" y="408"/>
      <point x="231" y="336"/>
      <point x="227" y="219" type="curve"/>
      <point x="161" y="220"/>
      <point x="105" y="234"/>
    </contour>
    <contour>
      <point x="52" y="314" type="line" smooth="yes"/>
      <point x="52" y="198"/>
      <point x="137" y="175"/>
      <point x="227" y="175" type="curve"/>
      <point x="229" y="28"/>
      <point x="312" y="-1"/>
      <point x="426" y="-1" type="curve" smooth="yes"/>
      <point x="546" y="-1" type="line" smooth="yes"/>
      <point x="666" y="-1"/>
      <point x="788" y="43"/>
      <point x="788" y="198" type="curve" smooth="yes"/>
      <point x="788" y="509" type="line"/>
      <point x="927" y="518" type="line"/>
      <point x="927" y="557" type="line"/>
      <point x="788" y="557" type="line"/>
      <point x="788" y="697" type="line"/>
      <point x="742" y="697" type="line"/>
      <point x="732" y="557" type="line"/>
      <point x="270" y="557" type="line" smooth="yes"/>
      <point x="131" y="557"/>
      <point x="52" y="526"/>
      <point x="52" y="386" type="curve" smooth="yes"/>
    </contour>
  </outline>
</glyph>
<glyph name="b.superior" format="1">
  <advance width="435"/>
  <outline>
    <contour>
      <point x="110" y="351" type="curve"/>
      <point x="110" y="600" type="line"/>
      <point x="150" y="621"/>
      <point x="183" y="635"/>
      <point x="231" y="635" type="curve" smooth="yes"/>
      <point x="293" y="635"/>
      <point x="338" y="608"/>
      <point x="338" y="475" type="curve" smooth="yes"/>
      <point x="338" y="371"/>
      <point x="301" y="318"/>
      <point x="231" y="318" type="curve" smooth="yes"/>
      <point x="182" y="318"/>
      <point x="142" y="336"/>
    </contour>
    <contour>
      <point x="59" y="280" type="line"/>
      <point x="100" y="280" type="line"/>
      <point x="110" y="320" type="line"/>
      <point x="141" y="299"/>
      <point x="190" y="276"/>
      <point x="248" y="276" type="curve" smooth="yes"/>
      <point x="349" y="276"/>
      <point x="390" y="353"/>
      <point x="390" y="473" type="curve" smooth="yes"/>
      <point x="390" y="624"/>
      <point x="341" y="677"/>
      <point x="247" y="677" type="curve" smooth="yes"/>
      <point x="205" y="677"/>
      <point x="150" y="658"/>
      <point x="110" y="635" type="curve"/>
      <point x="110" y="855" type="line"/>
      <point x="59" y="855" type="line"/>
    </contour>
  </outline>
</glyph>
<glyph name="bracketright.smcp" format="1">
  <advance width="291"/>
  <outline>
    <contour>
      <point x="30" y="-91" type="line"/>
      <point x="30" y="-136" type="line"/>
      <point x="79" y="-136" type="line" smooth="yes"/>
      <point x="187" y="-136"/>
      <point x="202" y="-49"/>
      <point x="202" y="5" type="curve" smooth="yes"/>
      <point x="202" y="529" type="line" smooth="yes"/>
      <point x="202" y="589"/>
      <point x="181" y="666"/>
      <point x="79" y="666" type="curve" smooth="yes"/>
      <point x="30" y="666" type="line"/>
      <point x="30" y="621" type="line"/>
      <point x="66" y="621" type="line" smooth="yes"/>
      <point x="114" y="621"/>
      <point x="146" y="593"/>
      <point x="146" y="522" type="curve" smooth="yes"/>
      <point x="146" y="7" type="line" smooth="yes"/>
      <point x="146" y="-49"/>
      <point x="124" y="-91"/>
      <point x="66" y="-91" type="curve" smooth="yes"/>
    </contour>
  </outline>
</glyph>
<glyph name="c_k" format="1">
  <advance width="958"/>
  <outline>
    <contour>
      <point x="548" y="0" type="line"/>
      <point x="606" y="0" type="line"/>
      <point x="606" y="193" type="line"/>
      <point x="681" y="273" type="line"/>
      <point x="873" y="0" type="line"/>
      <point x="937" y="0" type="line"/>
      <point x="721" y="305" type="line"/>
      <point x="926" y="533" type="line"/>
      <point x="863" y="533" type="line"/>
      <point x="606" y="254" type="line"/>
      <point x="606" y="763" type="line"/>
      <point x="548" y="763" type="line"/>
      <point x="548" y="206" type="line"/>
      <point x="446" y="113"/>
      <point x="344" y="41"/>
      <point x="259" y="41" type="curve" smooth="yes"/>
      <point x="174" y="41"/>
      <point x="120" y="82"/>
      <point x="120" y="263" type="curve" smooth="yes"/>
      <point x="120" y="452"/>
      <point x="181" y="492"/>
      <point x="286" y="492" type="curve" smooth="yes"/>
      <point x="446" y="492" type="line"/>
      <point x="446" y="527" type="line"/>
      <point x="391" y="535"/>
      <point x="323" y="538"/>
      <point x="273" y="538" type="curve" smooth="yes"/>
      <point x="146" y="538"/>
      <point x="62" y="487"/>
      <point x="62" y="266" type="curve" smooth="yes"/>
      <point x="62" y="45"/>
      <point x="138" y="-6"/>
      <point x="248" y="-6" type="curve" smooth="yes"/>
      <point x="355" y="-6"/>
      <point x="452" y="66"/>
      <point x="548" y="153" type="curve"/>
    </contour>
  </outline>
</glyph>
<glyph name="c_t" format="1">
  <advance width="829"/>
  <outline>
    <contour>
      <point x="454" y="6" type="curve"/>
      <point x="454" y="41" type="line"/>
      <point x="286" y="41" type="line" smooth="yes"/>
      <point x="187" y="41"/>
      <point x="120" y="82"/>
      <point x="120" y="263" type="curve" smooth="yes"/>
      <point x="120" y="452"/>
      <point x="192" y="492"/>
      <point x="314" y="492" type="curve" smooth="yes"/>
      <point x="576" y="492" type="line"/>
      <point x="573" y="167" type="line" smooth="yes"/>
      <point x="571" y="47"/>
      <point x="622" y="0"/>
      <point x="718" y="0" type="curve" smooth="yes"/>
      <point x="785" y="0" type="line"/>
      <point x="785" y="42" type="line"/>
      <point x="720" y="48" type="line" smooth="yes"/>
      <point x="683" y="52"/>
      <point x="631" y="65"/>
      <point x="631" y="167" type="curve" smooth="yes"/>
      <point x="631" y="484" type="line"/>
      <point x="793" y="484" type="line"/>
      <point x="793" y="533" type="line"/>
      <point x="631" y="533" type="line"/>
      <point x="631" y="682" type="line"/>
      <point x="587" y="682" type="line"/>
      <point x="577" y="530" type="line"/>
      <point x="514" y="534"/>
      <point x="357" y="538"/>
      <point x="307" y="538" type="curve" smooth="yes"/>
      <point x="159" y="538"/>
      <point x="62" y="487"/>
      <point x="62" y="266" type="curve" smooth="yes"/>
      <point x="62" y="45"/>
      <point x="152" y="-6"/>
      <point x="272" y="-6" type="curve" smooth="yes"/>
      <point x="342" y="-6"/>
      <point x="408" y="0"/>
    </contour>
  </outline>
</glyph>
<glyph name="circumflexcomb_hookabovecomb" format="1">
  <outline>
    <contour>
      <point x="-288" y="726" type="line"/>
      <point x="-413" y="631" type="line"/>
      <point x="-377" y="631" type="line"/>
      <point x="-267" y="697" type="line"/>
      <point x="-168" y="631" type="line"/>
      <point x="-131" y="631" type="line"/>
      <point x="-246" y="726" type="line"/>
    </contour>
    <contour>
      <point x="-193" y="800" type="line"/>
      <point x="-181" y="804"/>
      <point x="-168" y="806"/>
      <point x="-157" y="806" type="curve" smooth="yes"/>
      <point x="-122" y="806"/>
      <point x="-110" y="791"/>
      <point x="-110" y="765" type="curve" smooth="yes"/>
      <point x="-110" y="744"/>
      <point x="-124" y="722"/>
      <point x="-166" y="710" type="curve"/>
      <point x="-166" y="682" type="line"/>
      <point x="-105" y="699"/>
      <point x="-79" y="732"/>
      <point x="-79" y="767" type="curve" smooth="yes"/>
      <point x="-79" y="805"/>
      <point x="-101" y="831"/>
      <point x="-150" y="831" type="curve" smooth="yes"/>
      <point x="-165" y="831"/>
      <point x="-179" y="829"/>
      <point x="-193" y="824" type="curve"/>
    </contour>
    <contour>
      <point x="-269" y="650" type="move" name="_top"/>
    </contour>
  </outline>
</glyph>
<glyph name="d.salt" format="1">
  <advance width="566"/>
  <outline>
    <contour>
      <point x="118" y="260" type="curve" smooth="yes"/>
      <point x="118" y="412"/>
      <point x="151" y="490"/>
      <point x="261" y="490" type="curve" smooth="yes"/>
      <point x="323" y="490"/>
      <point x="366" y="480"/>
      <point x="435" y="461" type="curve"/>
      <point x="435" y="43" type="line"/>
      <point x="433" y="42"/>
      <point x="265" y="39"/>
      <point x="259" y="39" type="curve" smooth="yes"/>
      <point x="154" y="39"/>
      <point x="118" y="129"/>
    </contour>
    <contour>
      <point x="60" y="258" type="curve" smooth="yes"/>
      <point x="60" y="84"/>
      <point x="122" y="-11"/>
      <point x="257" y="-11" type="curve" smooth="yes"/>
      <point x="362" y="-11"/>
      <point x="443" y="0"/>
      <point x="493" y="14" type="curve"/>
      <point x="493" y="763" type="line"/>
      <point x="435" y="763" type="line"/>
      <point x="435" y="502" type="line"/>
      <point x="377" y="525"/>
      <point x="292" y="538"/>
      <point x="248" y="538" type="curve" smooth="yes"/>
      <point x="94" y="538"/>
      <point x="60" y="424"/>
    </contour>
    <contour>
      <point x="512" y="650" type="move" name="altcaron"/>
    </contour>
    <contour>
      <point x="412" y="810" type="move" name="top"/>
    </contour>
    <contour>
      <point x="286" y="-150" type="move" name="bottom"/>
    </contour>
  </outline>
</glyph>
<glyph name="dblgravecomb.case" format="1">
  <note>
    GF Latin Plus glyph
  </note>
  <outline>
    <contour>
      <point x="-476" y="926" type="line"/>
      <point x="-348" y="791" type="line"/>
      <point x="-314" y="791" type="line"/>
      <point x="-425" y="926" type="line"/>
    </contour>
    <contour>
      <point x="-340" y="926" type="line"/>
      <point x="-212" y="791" type="line"/>
      <point x="-178" y="791" type="line"/>
      <point x="-289" y="926" type="line"/>
    </contour>
    <contour>
      <point x="-279" y="810" type="move" name="_top"/>
    </contour>
  </outline>
</glyph>
<glyph name="dcroat.salt" format="1">
  <advance width="566"/>
  <outline>
    <contour>
      <point x="289" y="633" type="line"/>
      <point x="565" y="633" type="line"/>
      <point x="565" y="661" type="line"/>
      <point x="289" y="661" type="line"/>
    </contour>
    <component base="d.salt"/>
  </outline>
</glyph>
<glyph name="f_y" format="1">
  <advance width="907"/>
  <outline>
    <contour>
      <point x="341" y="484" type="line"/>
      <point x="389" y="484"/>
      <point x="416" y="461"/>
      <point x="433" y="408" type="curve" smooth="yes"/>
      <point x="532" y="119" type="line" smooth="yes"/>
      <point x="564" y="21"/>
      <point x="623" y="1"/>
      <point x="663" y="0" type="curve"/>
      <point x="591" y="-237" type="line"/>
      <point x="634" y="-237" type="line"/>
      <point x="680" y="-138" type="line"/>
      <point x="886" y="533" type="line"/>
      <point x="827" y="533" type="line"/>
      <point x="676" y="51" type="line"/>
      <point x="673" y="51"/>
      <point x="618" y="43"/>
      <point x="587" y="132" type="curve" smooth="yes"/>
      <point x="489" y="426" type="line" smooth="yes"/>
      <point x="466" y="504"/>
      <point x="431" y="533"/>
      <point x="341" y="533" type="curve"/>
    </contour>
    <component base="f"/>
  </outline>
</glyph>
<glyph name="five.oldstyle" format="1">
  <advance width="593"/>
  <outline>
    <contour>
      <point x="85" y="-197" type="line"/>
      <point x="147" y="-204"/>
      <point x="234" y="-206"/>
      <point x="319" y="-206" type="curve" smooth="yes"/>
      <point x="448" y="-206"/>
      <point x="542" y="-148"/>
      <point x="542" y="-32" type="curve" smooth="yes"/>
      <point x="542" y="77" type="line" smooth="yes"/>
      <point x="542" y="171"/>
      <point x="477" y="240"/>
      <point x="362" y="240" type="curve" smooth="yes"/>
      <point x="293" y="240" type="line" smooth="yes"/>
      <point x="224" y="240"/>
      <point x="182" y="210"/>
      <point x="167" y="181" type="curve"/>
      <point x="181" y="480" type="line"/>
      <point x="519" y="480" type="line"/>
      <point x="519" y="533" type="line"/>
      <point x="131" y="533" type="line"/>
      <point x="110" y="97" type="line"/>
      <point x="164" y="97" type="line"/>
      <point x="176" y="161"/>
      <point x="216" y="190"/>
      <point x="282" y="190" type="curve" smooth="yes"/>
      <point x="347" y="190" type="line" smooth="yes"/>
      <point x="438" y="190"/>
      <point x="484" y="143"/>
      <point x="484" y="69" type="curve" smooth="yes"/>
      <point x="484" y="-22" type="line" smooth="yes"/>
      <point x="484" y="-106"/>
      <point x="414" y="-154"/>
      <point x="320" y="-154" type="curve" smooth="yes"/>
      <point x="85" y="-154" type="line"/>
    </contour>
  </outline>
</glyph>
<glyph name="five.tnum" format="1">
  <advance width="609"/>
  <outline>
    <contour>
      <point x="95" y="4" type="line"/>
      <point x="162" y="-2"/>
      <point x="255" y="-4"/>
      <point x="349" y="-4" type="curve" smooth="yes"/>
      <point x="478" y="-4"/>
      <point x="572" y="54"/>
      <point x="572" y="170" type="curve" smooth="yes"/>
      <point x="572" y="279" type="line" smooth="yes"/>
      <point x="572" y="373"/>
      <point x="507" y="442"/>
      <point x="392" y="442" type="curve" smooth="yes"/>
      <point x="302" y="442" type="line" smooth="yes"/>
      <point x="233" y="442"/>
      <point x="191" y="411"/>
      <point x="176" y="382" type="curve"/>
      <point x="191" y="682" type="line"/>
      <point x="549" y="682" type="line"/>
      <point x="549" y="734" type="line"/>
      <point x="140" y="734" type="line"/>
      <point x="119" y="299" type="line"/>
      <point x="173" y="299" type="line"/>
      <point x="185" y="362"/>
      <point x="225" y="391"/>
      <point x="292" y="391" type="curve" smooth="yes"/>
      <point x="376" y="391" type="line" smooth="yes"/>
      <point x="468" y="391"/>
      <point x="514" y="345"/>
      <point x="514" y="270" type="curve" smooth="yes"/>
      <point x="514" y="180" type="line" smooth="yes"/>
      <point x="514" y="96"/>
      <point x="443" y="48"/>
      <point x="349" y="48" type="curve" smooth="yes"/>
      <point x="95" y="48" type="line"/>
    </contour>
  </outline>
</glyph>
<glyph name="four.oldstyle" format="1">
  <advance width="585"/>
  <outline>
    <contour>
      <point x="57" y="61" type="line"/>
      <point x="73" y="24" type="line"/>
      <point x="437" y="24" type="line"/>
      <point x="437" y="-185" type="line"/>
      <point x="495" y="-185" type="line"/>
      <point x="495" y="24" type="line"/>
      <point x="579" y="38" type="line"/>
      <point x="579" y="76" type="line"/>
      <point x="495" y="76" type="line"/>
      <point x="495" y="332" type="line"/>
      <point x="452" y="332" type="line"/>
      <point x="437" y="249" type="line"/>
      <point x="437" y="76" type="line"/>
      <point x="124" y="76" type="line"/>
      <point x="358" y="534" type="line"/>
      <point x="299" y="534" type="line"/>
    </contour>
  </outline>
</glyph>
<glyph name="four.tosf" format="1">
  <advance width="609"/>
  <outline>
    <contour>
      <point x="81" y="61" type="line"/>
      <point x="97" y="24" type="line"/>
      <point x="461" y="24" type="line"/>
      <point x="461" y="-185" type="line"/>
      <point x="519" y="-185" type="line"/>
      <point x="519" y="24" type="line"/>
      <point x="603" y="38" type="line"/>
      <point x="603" y="76" type="line"/>
      <point x="519" y="76" type="line"/>
      <point x="519" y="332" type="line"/>
      <point x="476" y="332" type="line"/>
      <point x="461" y="249" type="line"/>
      <point x="461" y="76" type="line"/>
      <point x="148" y="76" type="line"/>
      <point x="382" y="534" type="line"/>
      <point x="323" y="534" type="line"/>
    </contour>
  </outline>
</glyph>
<glyph name="g.salt" format="1">
  <advance width="570"/>
  <outline>
    <contour>
      <point x="120" y="269" type="curve" smooth="yes"/>
      <point x="120" y="401"/>
      <point x="156" y="493"/>
      <point x="269" y="493" type="curve" smooth="yes"/>
      <point x="272" y="493"/>
      <point x="432" y="492"/>
      <point x="434" y="491" type="curve"/>
      <point x="434" y="92" type="line"/>
      <point x="378" y="61"/>
      <point x="325" y="43"/>
      <point x="262" y="43" type="curve" smooth="yes"/>
      <point x="160" y="43"/>
      <point x="120" y="110"/>
    </contour>
    <contour>
      <point x="62" y="267" type="curve" smooth="yes"/>
      <point x="62" y="84"/>
      <point x="114" y="-6"/>
      <point x="249" y="-6" type="curve" smooth="yes"/>
      <point x="311" y="-6"/>
      <point x="379" y="16"/>
      <point x="434" y="52" type="curve"/>
      <point x="434" y="-21" type="line" smooth="yes"/>
      <point x="434" y="-138"/>
      <point x="389" y="-195"/>
      <point x="244" y="-195" type="curve" smooth="yes"/>
      <point x="88" y="-195" type="line"/>
      <point x="88" y="-230" type="line"/>
      <point x="130" y="-236"/>
      <point x="186" y="-243"/>
      <point x="259" y="-243" type="curve" smooth="yes"/>
      <point x="428" y="-243"/>
      <point x="492" y="-167"/>
      <point x="492" y="-13" type="curve" smooth="yes"/>
      <point x="492" y="528" type="line"/>
      <point x="439" y="533"/>
      <point x="365" y="539"/>
      <point x="270" y="539" type="curve" smooth="yes"/>
      <point x="118" y="539"/>
      <point x="62" y="441"/>
    </contour>
    <contour>
      <point x="299" y="650" type="move" name="top"/>
    </contour>
  </outline>
</glyph>
<glyph name="hookabovecomb.case" format="1">
  <note>
    GF Latin Plus glyph
  </note>
  <outline>
    <component base="hookabovecomb" xOffset="-5" yOffset="164"/>
    <contour>
      <point x="-310" y="810" type="move" name="_top"/>
    </contour>
  </outline>
</glyph>
<glyph name="liraTurkish" format="1">
  <advance width="609"/>
  <note>
    GF Latin Plus glyph
  </note>
  <outline>
    <contour>
      <point x="10" y="401" type="line"/>
      <point x="459" y="631" type="line"/>
      <point x="459" y="669" type="line"/>
      <point x="10" y="439" type="line"/>
    </contour>
    <contour>
      <point x="123" y="0" type="line"/>
      <point x="181" y="0" type="line" smooth="yes"/>
      <point x="414" y="0"/>
      <point x="562" y="68"/>
      <point x="562" y="337" type="curve"/>
      <point x="508" y="337" type="line"/>
      <point x="508" y="112"/>
      <point x="391" y="52"/>
      <point x="181" y="52" type="curve"/>
      <point x="181" y="734" type="line"/>
      <point x="123" y="734" type="line"/>
    </contour>
    <contour>
      <point x="10" y="243" type="line"/>
      <point x="459" y="473" type="line"/>
      <point x="459" y="511" type="line"/>
      <point x="10" y="281" type="line"/>
    </contour>
  </outline>
</glyph>
<glyph name="m.salt" format="1">
  <advance width="902"/>
  <outline>
    <contour>
      <point x="82" y="0" type="line"/>
      <point x="140" y="0" type="line"/>
      <point x="140" y="451" type="line"/>
      <point x="211" y="479"/>
      <point x="258" y="489"/>
      <point x="317" y="489" type="curve" smooth="yes"/>
      <point x="392" y="489"/>
      <point x="440" y="432"/>
      <point x="440" y="360" type="curve" smooth="yes"/>
      <point x="440" y="0" type="line"/>
      <point x="498" y="0" type="line"/>
      <point x="498" y="360" type="line" smooth="yes"/>
      <point x="498" y="384"/>
      <point x="492" y="412"/>
      <point x="484" y="429" type="curve"/>
      <point x="525" y="460"/>
      <point x="601" y="489"/>
      <point x="678" y="489" type="curve" smooth="yes"/>
      <point x="752" y="489"/>
      <point x="798" y="432"/>
      <point x="798" y="360" type="curve" smooth="yes"/>
      <point x="798" y="0" type="line"/>
      <point x="856" y="0" type="line"/>
      <point x="856" y="364" type="line" smooth="yes"/>
      <point x="856" y="461"/>
      <point x="804" y="542"/>
      <point x="691" y="542" type="curve" smooth="yes"/>
      <point x="605" y="542"/>
      <point x="521" y="509"/>
      <point x="466" y="469" type="curve"/>
      <point x="431" y="516"/>
      <point x="385" y="542"/>
      <point x="320" y="542" type="curve" smooth="yes"/>
      <point x="230" y="542"/>
      <point x="182" y="528"/>
      <point x="82" y="486" type="curve"/>
    </contour>
    <contour>
      <point x="473" y="650" type="move" name="top"/>
    </contour>
    <contour>
      <point x="469" y="-150" type="move" name="bottom"/>
    </contour>
  </outline>
</glyph>
<glyph name="n.salt" format="1">
  <advance width="584"/>
  <outline>
    <contour>
      <point x="82" y="0" type="line"/>
      <point x="140" y="0" type="line"/>
      <point x="140" y="451" type="line"/>
      <point x="187" y="472"/>
      <point x="242" y="489"/>
      <point x="312" y="489" type="curve" smooth="yes"/>
      <point x="390" y="489"/>
      <point x="435" y="433"/>
      <point x="435" y="360" type="curve" smooth="yes"/>
      <point x="435" y="0" type="line"/>
      <point x="493" y="0" type="line"/>
      <point x="493" y="366" type="line" smooth="yes"/>
      <point x="493" y="458"/>
      <point x="441" y="542"/>
      <point x="317" y="542" type="curve" smooth="yes"/>
      <point x="236" y="542"/>
      <point x="152" y="521"/>
      <point x="82" y="486" type="curve"/>
    </contour>
    <contour>
      <point x="283" y="650" type="move" name="top"/>
    </contour>
    <contour>
      <point x="283" y="-150" type="move" name="bottom"/>
    </contour>
  </outline>
</glyph>
<glyph name="nine.smcp" format="1">
  <advance width="529"/>
  <outline>
    <contour>
      <point x="404" y="292" type="curve"/>
      <point x="245" y="292" type="line" smooth="yes"/>
      <point x="168" y="292"/>
      <point x="119" y="305"/>
      <point x="119" y="372" type="curve" smooth="yes"/>
      <point x="119" y="435" type="line" smooth="yes"/>
      <point x="119" y="501"/>
      <point x="163" y="515"/>
      <point x="212" y="515" type="curve" smooth="yes"/>
      <point x="290" y="515" type="line" smooth="yes"/>
      <point x="363" y="515"/>
      <point x="404" y="470"/>
    </contour>
    <contour>
      <point x="458" y="280" type="curve" smooth="yes"/>
      <point x="458" y="507"/>
      <point x="395" y="563"/>
      <point x="297" y="563" type="curve" smooth="yes"/>
      <point x="204" y="563" type="line" smooth="yes"/>
      <point x="129" y="563"/>
      <point x="67" y="532"/>
      <point x="67" y="443" type="curve" smooth="yes"/>
      <point x="67" y="364" type="line" smooth="yes"/>
      <point x="67" y="278"/>
      <point x="128" y="250"/>
      <point x="232" y="250" type="curve" smooth="yes"/>
      <point x="278" y="250"/>
      <point x="353" y="253"/>
      <point x="404" y="260" type="curve"/>
      <point x="404" y="114"/>
      <point x="346" y="45"/>
      <point x="251" y="45" type="curve" smooth="yes"/>
      <point x="103" y="45" type="line"/>
      <point x="103" y="4" type="line"/>
      <point x="145" y="0"/>
      <point x="205" y="-3"/>
      <point x="250" y="-3" type="curve" smooth="yes"/>
      <point x="381" y="-3"/>
      <point x="458" y="81"/>
    </contour>
  </outline>
</glyph>
<glyph name="o.superior" format="1">
  <advance width="433"/>
  <outline>
    <contour>
      <point x="96" y="476" type="curve" smooth="yes"/>
      <point x="96" y="619"/>
      <point x="139" y="637"/>
      <point x="216" y="637" type="curve" smooth="yes"/>
      <point x="292" y="637"/>
      <point x="336" y="619"/>
      <point x="336" y="476" type="curve" smooth="yes"/>
      <point x="336" y="334"/>
      <point x="292" y="316"/>
      <point x="216" y="316" type="curve" smooth="yes"/>
      <point x="139" y="316"/>
      <point x="96" y="334"/>
    </contour>
    <contour>
      <point x="45" y="476" type="curve" smooth="yes"/>
      <point x="45" y="313"/>
      <point x="102" y="276"/>
      <point x="216" y="276" type="curve" smooth="yes"/>
      <point x="330" y="276"/>
      <point x="388" y="312"/>
      <point x="388" y="476" type="curve" smooth="yes"/>
      <point x="388" y="641"/>
      <point x="329" y="677"/>
      <point x="216" y="677" type="curve" smooth="yes"/>
      <point x="102" y="677"/>
      <point x="45" y="642"/>
    </contour>
    <contour>
      <point x="216" y="757" type="move" name="top"/>
    </contour>
    <contour>
      <point x="246" y="280" type="move" name="ogonek"/>
    </contour>
    <contour>
      <point x="216" y="169" type="move" name="bottom"/>
    </contour>
  </outline>
</glyph>
<glyph name="one.smcp" format="1">
  <advance width="316"/>
  <outline>
    <contour>
      <point x="49" y="479" type="line"/>
      <point x="174" y="515" type="line"/>
      <point x="174" y="0" type="line"/>
      <point x="230" y="0" type="line"/>
      <point x="230" y="566" type="line"/>
      <point x="178" y="566" type="line"/>
      <point x="49" y="513" type="line"/>
    </contour>
  </outline>
</glyph>
<glyph name="p.salt" format="1">
  <advance width="566"/>
  <outline>
    <contour>
      <point x="132" y="74" type="curve"/>
      <point x="132" y="492" type="line"/>
      <point x="134" y="493"/>
      <point x="304" y="494"/>
      <point x="309" y="494" type="curve" smooth="yes"/>
      <point x="412" y="494"/>
      <point x="449" y="402"/>
      <point x="449" y="271" type="curve" smooth="yes"/>
      <point x="449" y="124"/>
      <point x="413" y="46"/>
      <point x="308" y="46" type="curve" smooth="yes"/>
      <point x="245" y="46"/>
      <point x="200" y="56"/>
    </contour>
    <contour>
      <point x="74" y="-263" type="line"/>
      <point x="132" y="-263" type="line"/>
      <point x="132" y="31" type="line"/>
      <point x="190" y="7"/>
      <point x="277" y="-5"/>
      <point x="322" y="-5" type="curve" smooth="yes"/>
      <point x="475" y="-5"/>
      <point x="507" y="113"/>
      <point x="507" y="273" type="curve" smooth="yes"/>
      <point x="507" y="445"/>
      <point x="450" y="544"/>
      <point x="312" y="544" type="curve" smooth="yes"/>
      <point x="207" y="544"/>
      <point x="129" y="537"/>
      <point x="74" y="521" type="curve"/>
    </contour>
    <contour>
      <point x="274" y="650" type="move" name="top"/>
    </contour>
  </outline>
</glyph>
<glyph name="p.superior" format="1">
  <advance width="435"/>
  <outline>
    <contour>
      <point x="110" y="351" type="curve"/>
      <point x="110" y="600" type="line"/>
      <point x="142" y="617"/>
      <point x="182" y="635"/>
      <point x="231" y="635" type="curve" smooth="yes"/>
      <point x="288" y="635"/>
      <point x="338" y="590"/>
      <point x="338" y="475" type="curve" smooth="yes"/>
      <point x="338" y="357"/>
      <point x="292" y="318"/>
      <point x="231" y="318" type="curve" smooth="yes"/>
      <point x="190" y="318"/>
      <point x="147" y="332"/>
    </contour>
    <contour>
      <point x="59" y="86" type="line"/>
      <point x="110" y="86" type="line"/>
      <point x="110" y="314" type="line"/>
      <point x="151" y="291"/>
      <point x="201" y="276"/>
      <point x="246" y="276" type="curve" smooth="yes"/>
      <point x="345" y="276"/>
      <point x="390" y="344"/>
      <point x="390" y="477" type="curve" smooth="yes"/>
      <point x="390" y="579"/>
      <point x="352" y="677"/>
      <point x="247" y="677" type="curve" smooth="yes"/>
      <point x="196" y="677"/>
      <point x="137" y="650"/>
      <point x="110" y="631" type="curve"/>
      <point x="100" y="672" type="line"/>
      <point x="59" y="672" type="line"/>
    </contour>
  </outline>
</glyph>
<glyph name="r.salt" format="1">
  <advance width="382"/>
  <outline>
    <contour>
      <point x="82" y="0" type="line"/>
      <point x="140" y="0" type="line"/>
      <point x="140" y="452" type="line"/>
      <point x="182" y="472"/>
      <point x="233" y="484"/>
      <point x="298" y="484" type="curve" smooth="yes"/>
      <point x="318" y="484"/>
      <point x="336" y="481"/>
      <point x="352" y="479" type="curve"/>
      <point x="352" y="533" type="line"/>
      <point x="335" y="537"/>
      <point x="315" y="539"/>
      <point x="293" y="539" type="curve" smooth="yes"/>
      <point x="214" y="539"/>
      <point x="144" y="518"/>
      <point x="82" y="486" type="curve"/>
    </contour>
    <contour>
      <point x="240" y="650" type="move" name="top"/>
    </contour>
    <contour>
      <point x="111" y="-150" type="move" name="bottom"/>
    </contour>
  </outline>
</glyph>
<glyph name="r.superior" format="1">
  <advance width="308"/>
  <outline>
    <contour>
      <point x="59" y="280" type="line"/>
      <point x="110" y="280" type="line"/>
      <point x="110" y="563" type="line"/>
      <point x="155" y="604"/>
      <point x="189" y="625"/>
      <point x="246" y="625" type="curve" smooth="yes"/>
      <point x="261" y="625"/>
      <point x="276" y="623"/>
      <point x="289" y="621" type="curve"/>
      <point x="289" y="673" type="line"/>
      <point x="279" y="676"/>
      <point x="265" y="677"/>
      <point x="251" y="677" type="curve" smooth="yes"/>
      <point x="192" y="677"/>
      <point x="148" y="645"/>
      <point x="110" y="603" type="curve"/>
      <point x="98" y="672" type="line"/>
      <point x="59" y="672" type="line"/>
    </contour>
    <contour>
      <point x="156" y="757" type="move" name="top"/>
    </contour>
    <contour>
      <point x="84" y="169" type="move" name="bottom"/>
    </contour>
  </outline>
</glyph>
<glyph name="seven.tnum" format="1">
  <advance width="609"/>
  <outline>
    <contour>
      <point x="72" y="676" type="line"/>
      <point x="461" y="676" type="line"/>
      <point x="191" y="0" type="line"/>
      <point x="256" y="0" type="line"/>
      <point x="532" y="700" type="line"/>
      <point x="510" y="734" type="line"/>
      <point x="72" y="734" type="line"/>
    </contour>
  </outline>
</glyph>
<glyph name="six.tnum" format="1">
  <advance width="609"/>
  <outline>
    <contour>
      <point x="137" y="356" type="curve"/>
      <point x="341" y="356" type="line" smooth="yes"/>
      <point x="441" y="356"/>
      <point x="502" y="339"/>
      <point x="502" y="249" type="curve" smooth="yes"/>
      <point x="502" y="161" type="line" smooth="yes"/>
      <point x="502" y="71"/>
      <point x="447" y="50"/>
      <point x="383" y="50" type="curve" smooth="yes"/>
      <point x="284" y="50" type="line" smooth="yes"/>
      <point x="192" y="50"/>
      <point x="137" y="112"/>
    </contour>
    <contour>
      <point x="79" y="370" type="curve" smooth="yes"/>
      <point x="79" y="71"/>
      <point x="158" y="-2"/>
      <point x="276" y="-2" type="curve" smooth="yes"/>
      <point x="392" y="-2" type="line" smooth="yes"/>
      <point x="483" y="-2"/>
      <point x="559" y="38"/>
      <point x="559" y="154" type="curve" smooth="yes"/>
      <point x="559" y="256" type="line" smooth="yes"/>
      <point x="559" y="371"/>
      <point x="480" y="406"/>
      <point x="351" y="406" type="curve" smooth="yes"/>
      <point x="299" y="406"/>
      <point x="201" y="404"/>
      <point x="137" y="397" type="curve"/>
      <point x="137" y="594"/>
      <point x="212" y="688"/>
      <point x="331" y="688" type="curve" smooth="yes"/>
      <point x="515" y="688" type="line"/>
      <point x="515" y="731" type="line"/>
      <point x="463" y="736"/>
      <point x="388" y="740"/>
      <point x="334" y="740" type="curve" smooth="yes"/>
      <point x="174" y="740"/>
      <point x="79" y="627"/>
    </contour>
  </outline>
</glyph>
<glyph name="t_y" format="1">
  <advance width="893"/>
  <outline>
    <contour>
      <point x="325" y="484" type="line"/>
      <point x="376" y="484"/>
      <point x="402" y="461"/>
      <point x="418" y="413" type="curve" smooth="yes"/>
      <point x="518" y="119" type="line" smooth="yes"/>
      <point x="550" y="21"/>
      <point x="609" y="1"/>
      <point x="649" y="0" type="curve"/>
      <point x="575" y="-238" type="line"/>
      <point x="618" y="-238" type="line"/>
      <point x="664" y="-138" type="line"/>
      <point x="872" y="533" type="line"/>
      <point x="813" y="533" type="line"/>
      <point x="662" y="51" type="line"/>
      <point x="659" y="51"/>
      <point x="604" y="43"/>
      <point x="573" y="132" type="curve" smooth="yes"/>
      <point x="475" y="427" type="line" smooth="yes"/>
      <point x="452" y="503"/>
      <point x="411" y="533"/>
      <point x="325" y="533" type="curve"/>
    </contour>
    <component base="t"/>
  </outline>
</glyph>
<glyph name="three.oldstyle" format="1">
  <advance width="561"/>
  <outline>
    <contour>
      <point x="66" y="484" type="line"/>
      <point x="255" y="484" type="line" smooth="yes"/>
      <point x="358" y="484"/>
      <point x="410" y="438"/>
      <point x="410" y="359" type="curve" smooth="yes"/>
      <point x="410" y="302" type="line" smooth="yes"/>
      <point x="410" y="228"/>
      <point x="357" y="200"/>
      <point x="282" y="197" type="curve" smooth="yes"/>
      <point x="115" y="190" type="line"/>
      <point x="115" y="148" type="line"/>
      <point x="284" y="141" type="line" smooth="yes"/>
      <point x="347" y="138"/>
      <point x="421" y="112"/>
      <point x="421" y="25" type="curve" smooth="yes"/>
      <point x="421" y="-29" type="line" smooth="yes"/>
      <point x="421" y="-130"/>
      <point x="349" y="-153"/>
      <point x="262" y="-153" type="curve" smooth="yes"/>
      <point x="39" y="-153" type="line"/>
      <point x="39" y="-197" type="line"/>
      <point x="97" y="-204"/>
      <point x="182" y="-208"/>
      <point x="279" y="-208" type="curve" smooth="yes"/>
      <point x="406" y="-208"/>
      <point x="480" y="-148"/>
      <point x="480" y="-37" type="curve" smooth="yes"/>
      <point x="480" y="20" type="line" smooth="yes"/>
      <point x="480" y="120"/>
      <point x="398" y="161"/>
      <point x="358" y="169" type="curve"/>
      <point x="394" y="175"/>
      <point x="468" y="207"/>
      <point x="468" y="304" type="curve" smooth="yes"/>
      <point x="468" y="369" type="line" smooth="yes"/>
      <point x="468" y="468"/>
      <point x="407" y="538"/>
      <point x="275" y="539" type="curve" smooth="yes"/>
      <point x="186" y="539"/>
      <point x="117" y="534"/>
      <point x="66" y="528" type="curve"/>
    </contour>
  </outline>
</glyph>
<glyph name="two.oldstyle" format="1">
  <advance width="573"/>
  <outline>
    <contour>
      <point x="110" y="486" type="line"/>
      <point x="297" y="486" type="line" smooth="yes"/>
      <point x="394" y="486"/>
      <point x="432" y="453"/>
      <point x="432" y="389" type="curve" smooth="yes"/>
      <point x="432" y="327"/>
      <point x="386" y="276"/>
      <point x="263" y="179" type="curve" smooth="yes"/>
      <point x="91" y="45" type="line"/>
      <point x="91" y="0" type="line"/>
      <point x="512" y="0" type="line"/>
      <point x="512" y="52" type="line"/>
      <point x="178" y="52" type="line"/>
      <point x="318" y="163" type="line" smooth="yes"/>
      <point x="440" y="258"/>
      <point x="490" y="324"/>
      <point x="490" y="397" type="curve" smooth="yes"/>
      <point x="490" y="487"/>
      <point x="437" y="539"/>
      <point x="305" y="539" type="curve" smooth="yes"/>
      <point x="228" y="539"/>
      <point x="152" y="534"/>
      <point x="110" y="530" type="curve"/>
    </contour>
  </outline>
</glyph>
<glyph name="two.tnum" format="1">
  <advance width="609"/>
  <outline>
    <contour>
      <point x="97" y="686" type="line"/>
      <point x="292" y="686" type="line" smooth="yes"/>
      <point x="433" y="686"/>
      <point x="467" y="627"/>
      <point x="467" y="551" type="curve" smooth="yes"/>
      <point x="467" y="461"/>
      <point x="435" y="399"/>
      <point x="345" y="314" type="curve" smooth="yes"/>
      <point x="68" y="48" type="line"/>
      <point x="68" y="0" type="line"/>
      <point x="553" y="0" type="line"/>
      <point x="553" y="54" type="line"/>
      <point x="148" y="54" type="line"/>
      <point x="387" y="283" type="line" smooth="yes"/>
      <point x="488" y="380"/>
      <point x="525" y="451"/>
      <point x="525" y="555" type="curve" smooth="yes"/>
      <point x="525" y="663"/>
      <point x="472" y="740"/>
      <point x="306" y="740" type="curve" smooth="yes"/>
      <point x="231" y="740"/>
      <point x="156" y="734"/>
      <point x="97" y="729" type="curve"/>
    </contour>
  </outline>
</glyph>
<glyph name="two.tosf" format="1">
  <advance width="609"/>
  <outline>
    <contour>
      <point x="136" y="486" type="line"/>
      <point x="323" y="486" type="line" smooth="yes"/>
      <point x="420" y="486"/>
      <point x="458" y="453"/>
      <point x="458" y="389" type="curve" smooth="yes"/>
      <point x="458" y="327"/>
      <point x="412" y="276"/>
      <point x="289" y="179" type="curve" smooth="yes"/>
      <point x="117" y="45" type="line"/>
      <point x="117" y="0" type="line"/>
      <point x="538" y="0" type="line"/>
      <point x="538" y="52" type="line"/>
      <point x="204" y="52" type="line"/>
      <point x="344" y="163" type="line" smooth="yes"/>
      <point x="466" y="258"/>
      <point x="516" y="324"/>
      <point x="516" y="397" type="curve" smooth="yes"/>
      <point x="516" y="487"/>
      <point x="463" y="539"/>
      <point x="331" y="539" type="curve" smooth="yes"/>
      <point x="254" y="539"/>
      <point x="178" y="534"/>
      <point x="136" y="530" type="curve"/>
    </contour>
  </outline>
</glyph>
<glyph name="u.salt" format="1">
  <advance width="584"/>
  <outline>
    <contour>
      <point x="81" y="160" type="line" smooth="yes"/>
      <point x="81" y="56"/>
      <point x="140" y="-6"/>
      <point x="263" y="-6" type="curve" smooth="yes"/>
      <point x="362" y="-6"/>
      <point x="433" y="19"/>
      <point x="505" y="52" type="curve"/>
      <point x="505" y="533" type="line"/>
      <point x="447" y="533" type="line"/>
      <point x="447" y="83" type="line"/>
      <point x="374" y="54"/>
      <point x="322" y="46"/>
      <point x="269" y="46" type="curve" smooth="yes"/>
      <point x="187" y="46"/>
      <point x="139" y="85"/>
      <point x="139" y="172" type="curve" smooth="yes"/>
      <point x="139" y="533" type="line"/>
      <point x="81" y="533" type="line"/>
    </contour>
    <contour>
      <point x="291" y="650" type="move" name="top"/>
    </contour>
    <contour>
      <point x="333" y="0" type="move" name="ogonek"/>
    </contour>
    <contour>
      <point x="283" y="-150" type="move" name="bottom"/>
    </contour>
  </outline>
</glyph>
<glyph name="u.superior" format="1">
  <advance width="440"/>
  <outline>
    <contour>
      <point x="58" y="396" type="line" smooth="yes"/>
      <point x="58" y="312"/>
      <point x="102" y="276"/>
      <point x="178" y="276" type="curve" smooth="yes"/>
      <point x="236" y="276"/>
      <point x="290" y="298"/>
      <point x="332" y="323" type="curve"/>
      <point x="344" y="280" type="line"/>
      <point x="383" y="280" type="line"/>
      <point x="383" y="672" type="line"/>
      <point x="332" y="672" type="line"/>
      <point x="332" y="359" type="line"/>
      <point x="287" y="334"/>
      <point x="250" y="321"/>
      <point x="201" y="321" type="curve" smooth="yes"/>
      <point x="143" y="321"/>
      <point x="110" y="339"/>
      <point x="110" y="408" type="curve" smooth="yes"/>
      <point x="110" y="672" type="line"/>
      <point x="58" y="672" type="line"/>
    </contour>
    <contour>
      <point x="213" y="757" type="move" name="top"/>
    </contour>
    <contour>
      <point x="375" y="280" type="move" name="ogonek"/>
    </contour>
    <contour>
      <point x="213" y="169" type="move" name="bottom"/>
    </contour>
  </outline>
</glyph>
<glyph name="x.salt" format="1">
  <advance width="541"/>
  <outline>
    <contour>
      <point x="452" y="0" type="line"/>
      <point x="515" y="0" type="line"/>
      <point x="366" y="216" type="line" smooth="yes"/>
      <point x="349" y="240"/>
      <point x="345" y="260"/>
      <point x="345" y="278" type="curve" smooth="yes"/>
      <point x="345" y="298"/>
      <point x="352" y="319"/>
      <point x="374" y="346" type="curve" smooth="yes"/>
      <point x="515" y="533" type="line"/>
      <point x="452" y="533" type="line"/>
      <point x="330" y="378" type="line" smooth="yes"/>
      <point x="300" y="340"/>
      <point x="289" y="307"/>
      <point x="289" y="276" type="curve" smooth="yes"/>
      <point x="289" y="249"/>
      <point x="296" y="219"/>
      <point x="318" y="187" type="curve" smooth="yes"/>
    </contour>
    <contour>
      <point x="26" y="0" type="line"/>
      <point x="89" y="0" type="line"/>
      <point x="223" y="187" type="line" smooth="yes"/>
      <point x="244" y="218"/>
      <point x="251" y="248"/>
      <point x="251" y="276" type="curve" smooth="yes"/>
      <point x="251" y="307"/>
      <point x="240" y="341"/>
      <point x="211" y="378" type="curve" smooth="yes"/>
      <point x="89" y="533" type="line"/>
      <point x="26" y="533" type="line"/>
      <point x="167" y="346" type="line" smooth="yes"/>
      <point x="187" y="321"/>
      <point x="195" y="299"/>
      <point x="195" y="278" type="curve" smooth="yes"/>
      <point x="195" y="260"/>
      <point x="192" y="239"/>
      <point x="175" y="216" type="curve" smooth="yes"/>
    </contour>
    <contour>
      <point x="272" y="650" type="move" name="top"/>
    </contour>
    <contour>
      <point x="272" y="-150" type="move" name="bottom"/>
    </contour>
  </outline>
</glyph>
<glyph name="zero.smcp" format="1">
  <advance width="554"/>
  <outline>
    <contour>
      <point x="132" y="137" type="curve" smooth="yes"/>
      <point x="132" y="427" type="line" smooth="yes"/>
      <point x="132" y="484"/>
      <point x="170" y="517"/>
      <point x="231" y="517" type="curve" smooth="yes"/>
      <point x="326" y="517" type="line" smooth="yes"/>
      <point x="389" y="517"/>
      <point x="422" y="487"/>
      <point x="422" y="427" type="curve" smooth="yes"/>
      <point x="422" y="136" type="line" smooth="yes"/>
      <point x="422" y="81"/>
      <point x="394" y="47"/>
      <point x="325" y="47" type="curve" smooth="yes"/>
      <point x="232" y="47" type="line" smooth="yes"/>
      <point x="171" y="47"/>
      <point x="132" y="76"/>
    </contour>
    <contour>
      <point x="76" y="131" type="line" smooth="yes"/>
      <point x="76" y="38"/>
      <point x="138" y="-1"/>
      <point x="222" y="-1" type="curve" smooth="yes"/>
      <point x="336" y="-1" type="line" smooth="yes"/>
      <point x="422" y="-1"/>
      <point x="478" y="39"/>
      <point x="478" y="131" type="curve" smooth="yes"/>
      <point x="478" y="431" type="line" smooth="yes"/>
      <point x="478" y="510"/>
      <point x="435" y="565"/>
      <point x="336" y="565" type="curve" smooth="yes"/>
      <point x="222" y="565" type="line" smooth="yes"/>
      <point x="138" y="565"/>
      <point x="76" y="519"/>
      <point x="76" y="431" type="curve" smooth="yes"/>
    </contour>
  </outline>
</glyph>
<glyph name="zero.tnum" format="1">
  <advance width="609"/>
  <outline>
    <contour>
      <point x="123" y="175" type="curve" smooth="yes"/>
      <point x="123" y="564" type="line" smooth="yes"/>
      <point x="123" y="643"/>
      <point x="173" y="688"/>
      <point x="252" y="688" type="curve" smooth="yes"/>
      <point x="362" y="688" type="line" smooth="yes"/>
      <point x="444" y="688"/>
      <point x="487" y="646"/>
      <point x="487" y="564" type="curve" smooth="yes"/>
      <point x="487" y="175" type="line" smooth="yes"/>
      <point x="487" y="98"/>
      <point x="451" y="51"/>
      <point x="360" y="51" type="curve" smooth="yes"/>
      <point x="253" y="51" type="line" smooth="yes"/>
      <point x="173" y="51"/>
      <point x="123" y="93"/>
    </contour>
    <contour>
      <point x="65" y="169" type="line" smooth="yes"/>
      <point x="65" y="47"/>
      <point x="143" y="-1"/>
      <point x="243" y="-1" type="curve" smooth="yes"/>
      <point x="371" y="-1" type="line" smooth="yes"/>
      <point x="475" y="-1"/>
      <point x="545" y="49"/>
      <point x="545" y="169" type="curve" smooth="yes"/>
      <point x="545" y="568" type="line" smooth="yes"/>
      <point x="545" y="668"/>
      <point x="494" y="740"/>
      <point x="371" y="740" type="curve" smooth="yes"/>
      <point x="244" y="740" type="line" smooth="yes"/>
      <point x="141" y="740"/>
      <point x="65" y="682"/>
      <point x="65" y="568" type="curve" smooth="yes"/>
    </contour>
  </outline>
</glyph>
